<svg id="Layer_1" data-name="Layer 1" xmlns="http://www.w3.org/2000/svg" xmlns:xlink="http://www.w3.org/1999/xlink" viewBox="0 0 5760 3840"><defs><style>.cls-1,.cls-2,.cls-3,.cls-4,.cls-5{fill:none;opacity:0.36}.cls-2,.cls-3,.cls-4,.cls-5{stroke:#f8485e;}.cls-2{stroke-width:2px;}.cls-3,.cls-5{stroke-width:2px;}.cls-4{stroke-width:2px;}.cls-6{fill:url(#New_Pattern);}</style><pattern id="New_Pattern" data-name="New Pattern" width="1920" height="3840" patternTransform="translate(-366.94 1198.38)" patternUnits="userSpaceOnUse" viewBox="0 0 1920 3840"><rect class="cls-1" width="1920" height="3840"/><circle class="cls-2" cx="1094.19" cy="3600.26" r="363.38"/><path class="cls-3" d="M1068.41,2910.09c-59.94,0-108.5,47.92-108.5,107s48.56,107,108.5,107,108.5-47.92,108.5-107S1128.34,2910.09,1068.41,2910.09Z"/><path class="cls-3" d="M1327.55,2963.72l-246,123.61"/><path class="cls-3" d="M1323.86,2952.09,1077.91,3075.7"/><path class="cls-3" d="M1048,3027.09l-26,8.27m17,9.41-8.43-26.47"/><path class="cls-3" d="M1930.3,3399.27l-774.52,123.78"/><path class="cls-3" d="M1930.3,3373.27l-774.52,123.78"/><circle class="cls-4" cx="2041.42" cy="3409.16" r="390.8"/><path class="cls-3" d="M1580.57,3280.41l-55,8.79m31.58,24.22-9-56.07"/><path class="cls-3" d="M1571.08,3699.11l-56.08,9m32,23.6-8.79-55"/><path class="cls-3" d="M2023.57,3753l-774.52,123.78"/><line class="cls-3" x1="1489.96" y1="3838.55" x2="1502.85" y2="3850.59"/><line class="cls-3" x1="1505.64" y1="3836.05" x2="1518.52" y2="3848.09"/><line class="cls-3" x1="1521.32" y1="3833.56" x2="1534.2" y2="3845.6"/><line class="cls-3" x1="1536.99" y1="3831.06" x2="1549.88" y2="3843.1"/><line class="cls-3" x1="1552.67" y1="3828.56" x2="1565.55" y2="3840.61"/><line class="cls-3" x1="1568.34" y1="3826.07" x2="1581.23" y2="3838.11"/><line class="cls-3" x1="1584.02" y1="3823.57" x2="1596.9" y2="3835.61"/><line class="cls-3" x1="1599.7" y1="3821.08" x2="1612.58" y2="3833.12"/><line class="cls-3" x1="1615.37" y1="3818.58" x2="1628.26" y2="3830.62"/><line class="cls-3" x1="1631.05" y1="3816.08" x2="1643.93" y2="3828.12"/><line class="cls-3" x1="1646.73" y1="3813.59" x2="1659.61" y2="3825.63"/><line class="cls-3" x1="1662.4" y1="3811.09" x2="1675.29" y2="3823.13"/><line class="cls-3" x1="1678.08" y1="3808.59" x2="1690.96" y2="3820.64"/><line class="cls-3" x1="1693.76" y1="3806.1" x2="1706.64" y2="3818.14"/><line class="cls-3" x1="1709.43" y1="3803.6" x2="1722.32" y2="3815.64"/><line class="cls-3" x1="1725.11" y1="3801.11" x2="1737.99" y2="3813.15"/><line class="cls-3" x1="1740.78" y1="3798.61" x2="1753.67" y2="3810.65"/><line class="cls-3" x1="1756.46" y1="3796.11" x2="1769.34" y2="3808.15"/><line class="cls-3" x1="1772.14" y1="3793.62" x2="1785.02" y2="3805.66"/><line class="cls-3" x1="1787.81" y1="3791.12" x2="1800.7" y2="3803.16"/><line class="cls-3" x1="1803.49" y1="3788.62" x2="1816.37" y2="3800.66"/><line class="cls-3" x1="1819.17" y1="3786.13" x2="1832.05" y2="3798.17"/><line class="cls-3" x1="1834.84" y1="3783.63" x2="1847.73" y2="3795.67"/><path class="cls-3" d="M1850.52,3781.13l12.88,12"/><path class="cls-3" d="M10.3,3399.27l-774.52,123.78"/><path class="cls-3" d="M10.3,3373.27l-774.52,123.78"/><circle class="cls-4" cx="121.42" cy="3409.16" r="390.8"/><path class="cls-3" d="M103.57,3753l-774.52,123.78"/><path class="cls-3" d="M149.92,3627.66c-59.93,0-108.5,47.92-108.5,107s48.57,107,108.5,107,108.5-47.92,108.5-107S209.86,3627.66,149.92,3627.66Z"/><path class="cls-3" d="M409.07,3681.29,163.12,3804.9"/><path class="cls-3" d="M405.37,3669.66l-245.95,123.6"/><path class="cls-3" d="M129.35,3744.72l-26,8.28m17.05,9.4L112,3735.94"/><circle class="cls-5" cx="833.68" cy="3944.89" r="215.29"/><circle class="cls-4" cx="727.97" cy="3952.82" r="144.72"/><path class="cls-3" d="M838,2947.12l-55,8.79m31.58,24.22-9-56.07"/><circle class="cls-2" cx="2054.19" cy="1680.26" r="363.38"/><path class="cls-3" d="M2028.41,990.09c-59.94,0-108.5,47.92-108.5,107s48.56,107,108.5,107,108.5-47.92,108.5-107S2088.34,990.09,2028.41,990.09Z"/><path class="cls-3" d="M1918,2744.37l13.91-10.83"/><line class="cls-3" x1="1918.04" y1="2728.5" x2="1931.95" y2="2717.67"/><line class="cls-3" x1="1918.04" y1="2712.62" x2="1931.95" y2="2701.79"/><line class="cls-3" x1="1918.04" y1="2696.75" x2="1931.95" y2="2685.92"/><line class="cls-3" x1="1918.04" y1="2680.87" x2="1931.95" y2="2670.04"/><line class="cls-3" x1="1918.04" y1="2665" x2="1931.95" y2="2654.17"/><line class="cls-3" x1="1918.04" y1="2649.13" x2="1931.95" y2="2638.3"/><line class="cls-3" x1="1918.04" y1="2633.25" x2="1931.95" y2="2622.42"/><line class="cls-3" x1="1918.04" y1="2617.38" x2="1931.95" y2="2606.55"/><line class="cls-3" x1="1918.04" y1="2601.51" x2="1931.95" y2="2590.68"/><line class="cls-3" x1="1918.04" y1="2585.63" x2="1931.95" y2="2574.8"/><line class="cls-3" x1="1918.04" y1="2569.76" x2="1931.95" y2="2558.93"/><line class="cls-3" x1="1918.04" y1="2553.88" x2="1931.95" y2="2543.05"/><line class="cls-3" x1="1918.04" y1="2538.01" x2="1931.95" y2="2527.18"/><line class="cls-3" x1="1918.04" y1="2522.14" x2="1931.95" y2="2511.31"/><line class="cls-3" x1="1918.04" y1="2506.26" x2="1931.95" y2="2495.43"/><line class="cls-3" x1="1918.04" y1="2490.39" x2="1931.95" y2="2479.56"/><line class="cls-3" x1="1918.04" y1="2474.51" x2="1931.95" y2="2463.68"/><line class="cls-3" x1="1918.04" y1="2458.64" x2="1931.95" y2="2447.81"/><line class="cls-3" x1="1918.04" y1="2442.77" x2="1931.95" y2="2431.94"/><line class="cls-3" x1="1918.04" y1="2426.89" x2="1931.95" y2="2416.06"/><line class="cls-3" x1="1918.04" y1="2411.02" x2="1931.95" y2="2400.19"/><line class="cls-3" x1="1918.04" y1="2395.14" x2="1931.95" y2="2384.31"/><line class="cls-3" x1="1918.04" y1="2379.27" x2="1931.95" y2="2368.44"/><line class="cls-3" x1="1918.04" y1="2363.4" x2="1931.95" y2="2352.57"/><line class="cls-3" x1="1918.04" y1="2347.52" x2="1931.95" y2="2336.69"/><line class="cls-3" x1="1918.04" y1="2331.65" x2="1931.95" y2="2320.82"/><line class="cls-3" x1="1918.04" y1="2315.77" x2="1931.95" y2="2304.94"/><line class="cls-3" x1="1918.04" y1="2299.9" x2="1931.95" y2="2289.07"/><line class="cls-3" x1="1918.04" y1="2284.03" x2="1931.95" y2="2273.2"/><path class="cls-3" d="M1918,2268.15l13.91-10.83"/><circle class="cls-2" cx="134.19" cy="1680.26" r="363.38"/><path class="cls-3" d="M108.41,990.09c-59.94,0-108.5,47.92-108.5,107s48.56,107,108.5,107,108.5-47.92,108.5-107S168.34,990.09,108.41,990.09Z"/><path class="cls-3" d="M367.55,1043.72,121.6,1167.33"/><path class="cls-3" d="M363.86,1032.09,117.91,1155.7"/><path class="cls-3" d="M88,1107.09l-26,8.27m17,9.41-8.43-26.47"/><path class="cls-3" d="M970.3,1479.27,195.78,1603.05"/><path class="cls-3" d="M970.3,1453.27,195.78,1577.05"/><circle class="cls-4" cx="1081.42" cy="1489.16" r="390.8"/><path class="cls-3" d="M620.57,1360.41l-55,8.79m31.58,24.22-9-56.07"/><path class="cls-3" d="M878.76,2465.39l-55,8.79m31.58,24.22-9-56.07"/><path class="cls-3" d="M611.08,1779.11l-56.08,9m32,23.6-8.79-55"/><circle class="cls-4" cx="823.74" cy="2450.26" r="144.72"/><path class="cls-3" d="M1063.57,1833,289.05,1956.77"/><circle class="cls-4" cx="904.94" cy="2459.05" r="390.8"/><path class="cls-3" d="M823.74,2442.33,49.22,2566.11"/><path class="cls-3" d="M823.74,2416.33,49.22,2540.11"/><path class="cls-3" d="M1109.92,1707.66c-59.93,0-108.5,47.92-108.5,107s48.57,107,108.5,107,108.5-47.92,108.5-107S1169.86,1707.66,1109.92,1707.66Z"/><path class="cls-3" d="M1369.07,1761.29l-246,123.61"/><path class="cls-3" d="M1365.37,1749.66l-245.95,123.6"/><path class="cls-3" d="M1089.35,1824.72l-26,8.28m17,9.4-8.44-26.46"/><circle class="cls-5" cx="1793.68" cy="2024.89" r="215.29"/><path class="cls-3" d="M1743,2048l-55,8.79m31.58,24.22-9-56.07"/><circle class="cls-4" cx="1687.97" cy="2032.82" r="144.72"/><path class="cls-3" d="M1688,2024.89,913.45,2148.67"/><path class="cls-3" d="M1688,1998.89,913.45,2122.67"/><path class="cls-3" d="M420.23,1936l12.88,12"/><line class="cls-3" x1="435.9" y1="1933.53" x2="448.79" y2="1945.57"/><line class="cls-3" x1="451.58" y1="1931.03" x2="464.46" y2="1943.07"/><line class="cls-3" x1="467.26" y1="1928.53" x2="480.14" y2="1940.58"/><line class="cls-3" x1="482.93" y1="1926.04" x2="495.82" y2="1938.08"/><line class="cls-3" x1="498.61" y1="1923.54" x2="511.49" y2="1935.58"/><line class="cls-3" x1="514.29" y1="1921.05" x2="527.17" y2="1933.09"/><line class="cls-3" x1="529.96" y1="1918.55" x2="542.85" y2="1930.59"/><line class="cls-3" x1="545.64" y1="1916.05" x2="558.52" y2="1928.09"/><line class="cls-3" x1="561.32" y1="1913.56" x2="574.2" y2="1925.6"/><line class="cls-3" x1="576.99" y1="1911.06" x2="589.88" y2="1923.1"/><line class="cls-3" x1="592.67" y1="1908.56" x2="605.55" y2="1920.61"/><line class="cls-3" x1="608.34" y1="1906.07" x2="621.23" y2="1918.11"/><line class="cls-3" x1="624.02" y1="1903.57" x2="636.9" y2="1915.61"/><line class="cls-3" x1="639.7" y1="1901.08" x2="652.58" y2="1913.12"/><line class="cls-3" x1="655.37" y1="1898.58" x2="668.26" y2="1910.62"/><line class="cls-3" x1="671.05" y1="1896.08" x2="683.93" y2="1908.12"/><line class="cls-3" x1="686.73" y1="1893.59" x2="699.61" y2="1905.63"/><line class="cls-3" x1="702.4" y1="1891.09" x2="715.29" y2="1903.13"/><line class="cls-3" x1="718.08" y1="1888.59" x2="730.96" y2="1900.64"/><line class="cls-3" x1="733.76" y1="1886.1" x2="746.64" y2="1898.14"/><line class="cls-3" x1="749.43" y1="1883.6" x2="762.32" y2="1895.64"/><line class="cls-3" x1="765.11" y1="1881.11" x2="777.99" y2="1893.15"/><line class="cls-3" x1="780.78" y1="1878.61" x2="793.67" y2="1890.65"/><line class="cls-3" x1="796.46" y1="1876.11" x2="809.34" y2="1888.15"/><line class="cls-3" x1="812.14" y1="1873.62" x2="825.02" y2="1885.66"/><line class="cls-3" x1="827.81" y1="1871.12" x2="840.7" y2="1883.16"/><line class="cls-3" x1="843.49" y1="1868.62" x2="856.37" y2="1880.66"/><line class="cls-3" x1="859.17" y1="1866.13" x2="872.05" y2="1878.17"/><line class="cls-3" x1="874.84" y1="1863.63" x2="887.73" y2="1875.67"/><path class="cls-3" d="M890.52,1861.13l12.88,12"/><path class="cls-3" d="M1059.82,2099.37l12.88,12"/><line class="cls-3" x1="1075.49" y1="2096.87" x2="1088.38" y2="2108.91"/><line class="cls-3" x1="1091.17" y1="2094.37" x2="1104.05" y2="2106.42"/><line class="cls-3" x1="1106.85" y1="2091.88" x2="1119.73" y2="2103.92"/><line class="cls-3" x1="1122.52" y1="2089.38" x2="1135.41" y2="2101.42"/><line class="cls-3" x1="1138.2" y1="2086.89" x2="1151.08" y2="2098.93"/><line class="cls-3" x1="1153.87" y1="2084.39" x2="1166.76" y2="2096.43"/><line class="cls-3" x1="1169.55" y1="2081.89" x2="1182.43" y2="2093.93"/><line class="cls-3" x1="1185.23" y1="2079.4" x2="1198.11" y2="2091.44"/><line class="cls-3" x1="1200.9" y1="2076.9" x2="1213.79" y2="2088.94"/><line class="cls-3" x1="1216.58" y1="2074.4" x2="1229.46" y2="2086.45"/><line class="cls-3" x1="1232.26" y1="2071.91" x2="1245.14" y2="2083.95"/><line class="cls-3" x1="1247.93" y1="2069.41" x2="1260.82" y2="2081.45"/><line class="cls-3" x1="1263.61" y1="2066.92" x2="1276.49" y2="2078.96"/><line class="cls-3" x1="1279.29" y1="2064.42" x2="1292.17" y2="2076.46"/><line class="cls-3" x1="1294.96" y1="2061.92" x2="1307.85" y2="2073.96"/><line class="cls-3" x1="1310.64" y1="2059.43" x2="1323.52" y2="2071.47"/><line class="cls-3" x1="1326.32" y1="2056.93" x2="1339.2" y2="2068.97"/><line class="cls-3" x1="1341.99" y1="2054.43" x2="1354.88" y2="2066.48"/><line class="cls-3" x1="1357.67" y1="2051.94" x2="1370.55" y2="2063.98"/><line class="cls-3" x1="1373.34" y1="2049.44" x2="1386.23" y2="2061.48"/><line class="cls-3" x1="1389.02" y1="2046.95" x2="1401.9" y2="2058.99"/><line class="cls-3" x1="1404.7" y1="2044.45" x2="1417.58" y2="2056.49"/><line class="cls-3" x1="1420.37" y1="2041.95" x2="1433.26" y2="2053.99"/><line class="cls-3" x1="1436.05" y1="2039.46" x2="1448.93" y2="2051.5"/><line class="cls-3" x1="1451.73" y1="2036.96" x2="1464.61" y2="2049"/><line class="cls-3" x1="1467.4" y1="2034.46" x2="1480.29" y2="2046.51"/><line class="cls-3" x1="1483.08" y1="2031.97" x2="1495.96" y2="2044.01"/><line class="cls-3" x1="1498.76" y1="2029.47" x2="1511.64" y2="2041.51"/><line class="cls-3" x1="1514.43" y1="2026.98" x2="1527.32" y2="2039.02"/><path class="cls-3" d="M1530.11,2024.48l12.88,12"/><path class="cls-3" d="M-2,2744.37,12,2733.54"/><line class="cls-3" x1="-1.96" y1="2728.5" x2="11.95" y2="2717.67"/><line class="cls-3" x1="-1.96" y1="2712.62" x2="11.95" y2="2701.79"/><line class="cls-3" x1="-1.96" y1="2696.75" x2="11.95" y2="2685.92"/><line class="cls-3" x1="-1.96" y1="2680.87" x2="11.95" y2="2670.04"/><line class="cls-3" x1="-1.96" y1="2665" x2="11.95" y2="2654.17"/><line class="cls-3" x1="-1.96" y1="2649.13" x2="11.95" y2="2638.3"/><line class="cls-3" x1="-1.96" y1="2633.25" x2="11.95" y2="2622.42"/><line class="cls-3" x1="-1.96" y1="2617.38" x2="11.95" y2="2606.55"/><line class="cls-3" x1="-1.96" y1="2601.51" x2="11.95" y2="2590.68"/><line class="cls-3" x1="-1.96" y1="2585.63" x2="11.95" y2="2574.8"/><line class="cls-3" x1="-1.96" y1="2569.76" x2="11.95" y2="2558.93"/><line class="cls-3" x1="-1.96" y1="2553.88" x2="11.95" y2="2543.05"/><line class="cls-3" x1="-1.96" y1="2538.01" x2="11.95" y2="2527.18"/><line class="cls-3" x1="-1.96" y1="2522.14" x2="11.95" y2="2511.31"/><line class="cls-3" x1="-1.96" y1="2506.26" x2="11.95" y2="2495.43"/><line class="cls-3" x1="-1.96" y1="2490.39" x2="11.95" y2="2479.56"/><line class="cls-3" x1="-1.96" y1="2474.51" x2="11.95" y2="2463.68"/><line class="cls-3" x1="-1.96" y1="2458.64" x2="11.95" y2="2447.81"/><line class="cls-3" x1="-1.96" y1="2442.77" x2="11.95" y2="2431.94"/><line class="cls-3" x1="-1.96" y1="2426.89" x2="11.95" y2="2416.06"/><line class="cls-3" x1="-1.96" y1="2411.02" x2="11.95" y2="2400.19"/><line class="cls-3" x1="-1.96" y1="2395.14" x2="11.95" y2="2384.31"/><line class="cls-3" x1="-1.96" y1="2379.27" x2="11.95" y2="2368.44"/><line class="cls-3" x1="-1.96" y1="2363.4" x2="11.95" y2="2352.57"/><line class="cls-3" x1="-1.96" y1="2347.52" x2="11.95" y2="2336.69"/><line class="cls-3" x1="-1.96" y1="2331.65" x2="11.95" y2="2320.82"/><line class="cls-3" x1="-1.96" y1="2315.77" x2="11.95" y2="2304.94"/><line class="cls-3" x1="-1.96" y1="2299.9" x2="11.95" y2="2289.07"/><line class="cls-3" x1="-1.96" y1="2284.03" x2="11.95" y2="2273.2"/><path class="cls-3" d="M-2,2268.15,12,2257.32"/><path class="cls-3" d="M67.58,2550.17l-56.08,9m32,23.6-8.79-55"/><path class="cls-3" d="M1715.48,2509.66c0-59.94-47.92-108.5-107-108.5s-107,48.56-107,108.5,47.92,108.5,107,108.5S1715.48,2569.59,1715.48,2509.66Z"/><path class="cls-3" d="M1661.85,2768.8l-123.61-246"/><path class="cls-3" d="M1673.48,2765.11l-123.61-246"/><path class="cls-3" d="M1598.42,2489.08l-8.28-26m-9.4,17,26.46-8.44"/><path class="cls-3" d="M1798,1027.12l-55,8.79m31.58,24.22-9-56.07"/><circle class="cls-5" cx="-126.32" cy="2024.89" r="215.29"/><circle class="cls-2" cx="1094.19" cy="-239.74" r="363.38"/><path class="cls-3" d="M1838.76,545.39l-55,8.79m31.58,24.22-9-56.07"/><circle class="cls-4" cx="1783.74" cy="530.26" r="144.72"/><path class="cls-3" d="M2023.57-87,1249.05,36.77"/><circle class="cls-4" cx="1864.94" cy="539.05" r="390.8"/><path class="cls-3" d="M1783.74,522.33,1009.22,646.11"/><path class="cls-3" d="M1783.74,496.33,1009.22,620.11"/><path class="cls-3" d="M2648,104.89,1873.45,228.67"/><path class="cls-3" d="M2648,78.89,1873.45,202.67"/><path class="cls-3" d="M1380.23,16l12.88,12"/><line class="cls-3" x1="1395.9" y1="13.53" x2="1408.79" y2="25.57"/><line class="cls-3" x1="1411.58" y1="11.03" x2="1424.46" y2="23.07"/><line class="cls-3" x1="1427.26" y1="8.53" x2="1440.14" y2="20.58"/><line class="cls-3" x1="1442.93" y1="6.04" x2="1455.82" y2="18.08"/><line class="cls-3" x1="1458.61" y1="3.54" x2="1471.49" y2="15.58"/><line class="cls-3" x1="1474.29" y1="1.05" x2="1487.17" y2="13.09"/><line class="cls-3" x1="1489.96" y1="-1.45" x2="1502.85" y2="10.59"/><line class="cls-3" x1="1505.64" y1="-3.95" x2="1518.52" y2="8.09"/><line class="cls-3" x1="1521.32" y1="-6.44" x2="1534.2" y2="5.6"/><line class="cls-3" x1="1536.99" y1="-8.94" x2="1549.88" y2="3.1"/><line class="cls-3" x1="1552.67" y1="-11.44" x2="1565.55" y2="0.61"/><path class="cls-3" d="M958,824.37,972,813.54"/><line class="cls-3" x1="958.04" y1="808.5" x2="971.95" y2="797.67"/><line class="cls-3" x1="958.04" y1="792.62" x2="971.95" y2="781.79"/><line class="cls-3" x1="958.04" y1="776.75" x2="971.95" y2="765.92"/><line class="cls-3" x1="958.04" y1="760.87" x2="971.95" y2="750.04"/><line class="cls-3" x1="958.04" y1="745" x2="971.95" y2="734.17"/><line class="cls-3" x1="958.04" y1="729.13" x2="971.95" y2="718.3"/><line class="cls-3" x1="958.04" y1="713.25" x2="971.95" y2="702.42"/><line class="cls-3" x1="958.04" y1="697.38" x2="971.95" y2="686.55"/><line class="cls-3" x1="958.04" y1="681.51" x2="971.95" y2="670.68"/><line class="cls-3" x1="958.04" y1="665.63" x2="971.95" y2="654.8"/><line class="cls-3" x1="958.04" y1="649.76" x2="971.95" y2="638.93"/><line class="cls-3" x1="958.04" y1="633.88" x2="971.95" y2="623.05"/><line class="cls-3" x1="958.04" y1="618.01" x2="971.95" y2="607.18"/><line class="cls-3" x1="958.04" y1="602.14" x2="971.95" y2="591.31"/><line class="cls-3" x1="958.04" y1="586.26" x2="971.95" y2="575.43"/><line class="cls-3" x1="958.04" y1="570.39" x2="971.95" y2="559.56"/><line class="cls-3" x1="958.04" y1="554.51" x2="971.95" y2="543.68"/><line class="cls-3" x1="958.04" y1="538.64" x2="971.95" y2="527.81"/><line class="cls-3" x1="958.04" y1="522.77" x2="971.95" y2="511.94"/><line class="cls-3" x1="958.04" y1="506.89" x2="971.95" y2="496.06"/><line class="cls-3" x1="958.04" y1="491.02" x2="971.95" y2="480.19"/><line class="cls-3" x1="958.04" y1="475.14" x2="971.95" y2="464.31"/><line class="cls-3" x1="958.04" y1="459.27" x2="971.95" y2="448.44"/><line class="cls-3" x1="958.04" y1="443.4" x2="971.95" y2="432.57"/><line class="cls-3" x1="958.04" y1="427.52" x2="971.95" y2="416.69"/><line class="cls-3" x1="958.04" y1="411.65" x2="971.95" y2="400.82"/><line class="cls-3" x1="958.04" y1="395.77" x2="971.95" y2="384.94"/><line class="cls-3" x1="958.04" y1="379.9" x2="971.95" y2="369.07"/><line class="cls-3" x1="958.04" y1="364.03" x2="971.95" y2="353.2"/><path class="cls-3" d="M958,348.15,972,337.32"/><path class="cls-3" d="M1027.58,630.17l-56.08,9m32,23.6-8.79-55"/><circle class="cls-4" cx="-136.26" cy="530.26" r="144.72"/><path class="cls-3" d="M103.57-87-670.95,36.77"/><circle class="cls-4" cx="-55.06" cy="539.05" r="390.8"/><path class="cls-3" d="M149.92-212.34c-59.93,0-108.5,47.92-108.5,107S90,1.66,149.92,1.66s108.5-47.92,108.5-107S209.86-212.34,149.92-212.34Z"/><circle class="cls-5" cx="833.68" cy="104.89" r="215.29"/><path class="cls-3" d="M783,128l-55,8.79M759.55,161l-9-56.07"/><circle class="cls-4" cx="727.97" cy="112.82" r="144.72"/><path class="cls-3" d="M728,104.89-46.55,228.67"/><path class="cls-3" d="M728,78.89-46.55,202.67"/><path class="cls-3" d="M99.82,179.37l12.88,12"/><line class="cls-3" x1="115.49" y1="176.87" x2="128.38" y2="188.91"/><line class="cls-3" x1="131.17" y1="174.37" x2="144.05" y2="186.42"/><line class="cls-3" x1="146.85" y1="171.88" x2="159.73" y2="183.92"/><line class="cls-3" x1="162.52" y1="169.38" x2="175.41" y2="181.42"/><line class="cls-3" x1="178.2" y1="166.89" x2="191.08" y2="178.93"/><line class="cls-3" x1="193.87" y1="164.39" x2="206.76" y2="176.43"/><line class="cls-3" x1="209.55" y1="161.89" x2="222.43" y2="173.93"/><line class="cls-3" x1="225.23" y1="159.4" x2="238.11" y2="171.44"/><line class="cls-3" x1="240.9" y1="156.9" x2="253.79" y2="168.94"/><line class="cls-3" x1="256.58" y1="154.4" x2="269.46" y2="166.45"/><line class="cls-3" x1="272.26" y1="151.91" x2="285.14" y2="163.95"/><line class="cls-3" x1="287.93" y1="149.41" x2="300.82" y2="161.45"/><line class="cls-3" x1="303.61" y1="146.92" x2="316.49" y2="158.96"/><line class="cls-3" x1="319.29" y1="144.42" x2="332.17" y2="156.46"/><line class="cls-3" x1="334.96" y1="141.92" x2="347.85" y2="153.96"/><line class="cls-3" x1="350.64" y1="139.43" x2="363.52" y2="151.47"/><line class="cls-3" x1="366.32" y1="136.93" x2="379.2" y2="148.97"/><line class="cls-3" x1="381.99" y1="134.43" x2="394.88" y2="146.48"/><line class="cls-3" x1="397.67" y1="131.94" x2="410.55" y2="143.98"/><line class="cls-3" x1="413.34" y1="129.44" x2="426.23" y2="141.48"/><line class="cls-3" x1="429.02" y1="126.95" x2="441.9" y2="138.99"/><line class="cls-3" x1="444.7" y1="124.45" x2="457.58" y2="136.49"/><line class="cls-3" x1="460.37" y1="121.95" x2="473.26" y2="133.99"/><line class="cls-3" x1="476.05" y1="119.46" x2="488.93" y2="131.5"/><line class="cls-3" x1="491.73" y1="116.96" x2="504.61" y2="129"/><line class="cls-3" x1="507.4" y1="114.46" x2="520.29" y2="126.51"/><line class="cls-3" x1="523.08" y1="111.97" x2="535.96" y2="124.01"/><line class="cls-3" x1="538.76" y1="109.47" x2="551.64" y2="121.51"/><line class="cls-3" x1="554.43" y1="106.98" x2="567.32" y2="119.02"/><path class="cls-3" d="M570.11,104.48l12.88,12"/><path class="cls-3" d="M755.48,589.66c0-59.94-47.92-108.5-107-108.5s-107,48.56-107,108.5,47.92,108.5,107,108.5S755.48,649.59,755.48,589.66Z"/><path class="cls-3" d="M701.85,848.8,578.24,602.85"/><path class="cls-3" d="M713.48,845.11l-123.61-246"/><path class="cls-3" d="M638.42,569.08l-8.28-26m-9.4,17,26.46-8.44"/></pattern></defs><rect class="cls-6" width="5760" height="3840"/></svg>
