<svg id="Layer_1" data-name="Layer 1" xmlns="http://www.w3.org/2000/svg" viewBox="0 0 841.89 229.8"><defs><style>.cls-1{fill:#ffffff;}.cls-2{fill:#ffffff;}</style></defs><title>simonyi_color</title><path class="cls-1" d="M286.11,111.28c-6.55,5.54-15.33,5.62-17.8,5.62-3.23,0-13.63-.15-21.18-8.09a20.67,20.67,0,0,1-2.62-3.54l8.55-5.93c2.39,3.54,6.86,8.16,16.87,8.16a19.18,19.18,0,0,0,4-.38c1.15-.23,6.47-1.7,6.47-6.78a5.59,5.59,0,0,0-1-3.24c-1.85-2.46-6.78-3.15-9.48-3.77l-6.47-1.46a33.17,33.17,0,0,1-8.24-2.55,13.64,13.64,0,0,1-7.78-12.63,16.22,16.22,0,0,1,2.08-8c2.46-4.16,8.4-8.93,19.41-8.93a25.77,25.77,0,0,1,21.95,11L282.49,77c-1.7-2.7-5.55-8.09-14.1-8.09-.54,0-7.39-.08-9.63,4.16a4.91,4.91,0,0,0-.61,2.47,4.59,4.59,0,0,0,.69,2.46c1.31,2.23,4.31,2.93,9.32,4l5.62,1.23c5.16,1.15,10.86,2.69,14.48,6.93,1.54,1.7,3.16,4.16,3.16,9.17A14.55,14.55,0,0,1,286.11,111.28Z"/><path class="cls-1" d="M299.12,71V61.67h9.17V71Zm0,44.52V77h9.17v38.51Z"/><path class="cls-1" d="M366.83,115.51V91.94c0-1.46-.31-7.47-6.47-7.47a8.09,8.09,0,0,0-6.86,3.93c-1.77,2.77-1.85,5.93-1.85,9v18.1h-9.16V94c0-.85-.08-1.7-.08-2.55A7.21,7.21,0,0,0,340.33,86a6.21,6.21,0,0,0-4.16-1.46,7.63,7.63,0,0,0-4.85,1.85c-3.78,3.23-3.85,8.62-3.85,12.94v16.17h-9.25V77h9.25l.07,4.31a5.78,5.78,0,0,1,1.24-1.38,17,17,0,0,1,10.86-4.09,12,12,0,0,1,10.7,5.86,13.67,13.67,0,0,1,3.55-3.31,15,15,0,0,1,8.86-2.55c5.85,0,11.09,2.55,12.7,8.55a24.9,24.9,0,0,1,.54,6.78v24.34Z"/><path class="cls-1" d="M421.52,104.73a18.78,18.78,0,0,1-18,11.94,20.74,20.74,0,0,1-8.7-1.77c-4-1.78-11.33-7.17-11.33-18.8a23.11,23.11,0,0,1,1.7-8.62c1.62-3.86,6.55-11.64,18-11.64a21.14,21.14,0,0,1,8.48,1.78c4.15,1.77,11.32,6.93,11.4,18.48A23.64,23.64,0,0,1,421.52,104.73ZM403,84.16a10.34,10.34,0,0,0-5.24,1.47c-2,1.31-4.7,4.46-4.7,10.24a15.32,15.32,0,0,0,.77,5.24c.62,1.85,3.31,7.09,9.63,7.09,7,0,10.17-6.17,9.94-12.25S409.81,84.16,403,84.16Z"/><path class="cls-1" d="M455.1,115.51V95.87a23.24,23.24,0,0,0-.39-5.93,6.16,6.16,0,0,0-6.39-5.08,7.33,7.33,0,0,0-4.86,1.77c-2.77,2.31-3.62,5.54-3.62,12.17v16.71h-9.32V77h9.32v4.54a18.93,18.93,0,0,1,1.7-2c3.62-3.39,8.86-3.7,10.17-3.7,5.7,0,9,2.93,10.24,4.7,2.47,3.55,2.23,8.4,2.23,12.33v22.64Z"/><path class="cls-1" d="M495.38,110.58c-1.39,4.78-3.39,12.94-7,15.87-2.39,1.93-4.85,2.31-7.86,2.31a21.59,21.59,0,0,1-5.47-.54v-8c3.7.46,5.78,0,7.17-1.15a5.74,5.74,0,0,0,1.62-2.78L469.88,77h9.94l8.63,28.73L495.69,77h9.47Z"/><path class="cls-1" d="M510.86,71V61.67H520V71Zm0,44.52V77H520v38.51Z"/><path class="cls-1" d="M586.88,115.51,572.4,89.94l-8.86,10.17v15.4H553.45V61.13h10.09v25l21.8-25h11.94L579.49,81.62l19,33.89Z"/><path class="cls-1" d="M626.24,115.51l-.23-3a13,13,0,0,1-3.54,2.16,18.09,18.09,0,0,1-7.78,1.77c-1.85,0-8.78-.23-12.33-5.93a11,11,0,0,1-1.69-6.17,11.21,11.21,0,0,1,5.24-9.62c3.15-2.16,6.16-2.62,9.7-3.32a70.58,70.58,0,0,0,10.63-2.62,7.38,7.38,0,0,0-.54-3.15C624.93,84.16,623,83,619.62,83c-3.55,0-5.78,1.08-6.78,2.39a5,5,0,0,0-1,3.38l-9.4-.53a11.62,11.62,0,0,1,4.16-8.86c2.39-2,6-3.55,12.71-3.55,6.32,0,10,1.31,12.4,3a8.87,8.87,0,0,1,2.77,3.08c1,2,1,4.7,1,6.85v20.49c0,2.93.16,3.78,1.7,6.24Zm0-19.18a24.05,24.05,0,0,1-7.32,2.16c-2.08.38-4.31.46-6.24,1.62a4.54,4.54,0,0,0-2.23,3.85c0,2.31,1.7,4.54,6.32,4.54,5.08,0,8.08-2.62,8.93-4.39a7.09,7.09,0,0,0,.54-3.54Zm-3.77-25h-6.93l3.85-10.25h11.4Z"/><path class="cls-1" d="M655,92.71a19.56,19.56,0,0,0-.69,6.32v16.48h-8.94V77h8.94v5.47a11.65,11.65,0,0,1,2.31-3.16c3.08-3,8.09-3.16,9.16-3.16h.78v9.48C664.6,85.63,657.21,85.63,655,92.71Z"/><path class="cls-1" d="M708.43,104.73a18.78,18.78,0,0,1-18,11.94,20.74,20.74,0,0,1-8.7-1.77c-4-1.78-11.32-7.17-11.32-18.8a23.16,23.16,0,0,1,1.69-8.62c1.62-3.86,6.55-11.64,18-11.64a21.14,21.14,0,0,1,8.48,1.78c4.16,1.77,11.32,6.93,11.4,18.48A23.64,23.64,0,0,1,708.43,104.73ZM689.94,84.16a10.34,10.34,0,0,0-5.24,1.47c-2,1.31-4.7,4.46-4.7,10.24a15.32,15.32,0,0,0,.77,5.24c.62,1.85,3.31,7.09,9.63,7.09,7,0,10.17-6.17,9.94-12.25S696.72,84.16,689.94,84.16Z"/><path class="cls-1" d="M717.59,115.51V61.13H727v54.38Z"/><path class="cls-1" d="M758.26,110.58c-1.39,4.78-3.39,12.94-7,15.87-2.39,1.93-4.85,2.31-7.86,2.31a21.59,21.59,0,0,1-5.47-.54v-8c3.7.46,5.78,0,7.17-1.15a5.74,5.74,0,0,0,1.62-2.78L732.76,77h9.94l8.63,28.73L758.57,77H768Z"/><path class="cls-1" d="M266.59,166.21c-3.28,2.78-7.68,2.82-8.92,2.82-1.62,0-6.83-.08-10.61-4.05a10.61,10.61,0,0,1-1.31-1.78l4.28-3c1.2,1.77,3.44,4.09,8.45,4.09a9.63,9.63,0,0,0,2-.19c.58-.12,3.24-.85,3.24-3.4a2.79,2.79,0,0,0-.5-1.62c-.93-1.24-3.4-1.58-4.75-1.89l-3.24-.73a16.53,16.53,0,0,1-4.13-1.28,6.83,6.83,0,0,1-3.89-6.33,8.08,8.08,0,0,1,1-4c1.23-2.08,4.2-4.48,9.72-4.48a12.92,12.92,0,0,1,11,5.52L264.77,149a7.9,7.9,0,0,0-7.06-4c-.27,0-3.7,0-4.82,2.08a2.47,2.47,0,0,0-.31,1.23,2.24,2.24,0,0,0,.35,1.24c.65,1.12,2.16,1.47,4.67,2l2.81.61c2.59.58,5.44,1.35,7.26,3.48a6.19,6.19,0,0,1,1.58,4.59A7.28,7.28,0,0,1,266.59,166.21Z"/><path class="cls-1" d="M288.54,168.33v-4.16l14.9-18.53H289.82v-4.55h20v4.32l-14.32,18.33h14.32v4.59Z"/><path class="cls-1" d="M347.05,168.33,345.46,163H335.24l-1.58,5.32h-5.48l9.22-27.24h5.79l9.3,27.24ZM340.37,146l-3.78,12.54h7.52Z"/><path class="cls-1" d="M389.73,168.33l-7.26-12.81-4.44,5.1v7.71h-5V141.09h5v12.5L389,141.09h6L386,151.35l9.53,17Z"/><path class="cls-1" d="M432.48,168.33l-7.25-12.81-4.44,5.1v7.71h-5.06V141.09h5.06v12.5l10.92-12.5h6l-8.91,10.26,9.53,17Z"/><path class="cls-1" d="M479.6,165.13a12.21,12.21,0,0,1-4.63,3.13,13.94,13.94,0,0,1-4.75.77,11.5,11.5,0,0,1-9.34-4.21,14.69,14.69,0,0,1-3.62-10.07,16.54,16.54,0,0,1,.81-5.29A12.87,12.87,0,0,1,480,144.72a14.51,14.51,0,0,1,3.39,10A15.37,15.37,0,0,1,479.6,165.13Zm-3-16.48a7.15,7.15,0,0,0-6.33-3.59,7.74,7.74,0,0,0-3.47.81c-1.93,1-4.33,3.59-4.33,8.69,0,1,0,6.06,3.86,8.56a7.36,7.36,0,0,0,4,1.16,7.45,7.45,0,0,0,3.12-.66c2-.92,4.63-3.24,4.75-8.37A12.11,12.11,0,0,0,476.63,148.65Z"/><path class="cls-1" d="M505.34,168.33V141.09h5.13V163.7h10.81v4.63Z"/><path class="cls-1" d="M542.46,168.33V141.09h5.13V163.7H558.4v4.63Z"/><path class="cls-1" d="M579.43,168.33V141.09H598.8v4.55H584.45v6.41h13.16v4.4H584.45v7.29h15.32v4.59Zm10.34-29.9h-3.43l2-4.63h5.56Z"/><path class="cls-1" d="M639.63,168.33l0-2.31a10.24,10.24,0,0,1-7.49,3,12.19,12.19,0,0,1-8.72-3.44,14.63,14.63,0,0,1-4-10.61,16,16,0,0,1,3.21-9.84,12.68,12.68,0,0,1,10-4.75,13,13,0,0,1,4.48.82,12,12,0,0,1,7,7.21l-4.86,1.93c-.46-1.31-1.89-5.36-6.64-5.36a6.83,6.83,0,0,0-4.9,2c-1.31,1.35-2.7,3.67-2.7,7.88,0,1.12,0,5.21,3.12,7.83a6.85,6.85,0,0,0,4.6,1.54,6.32,6.32,0,0,0,6.13-3.86,8.36,8.36,0,0,0,.58-2.43h-6.79v-4.47H644v14.89Z"/><path class="cls-1" d="M666.6,168.33V141.09h5v27.24Z"/><path class="cls-1" d="M716.38,162.78c-.88,2.74-4,6.25-10.68,6.25-3.21,0-6.41-.77-8.65-3.24a8,8,0,0,1-1.74-2.94c-.42-1.39-.42-2.66-.42-5.55V141.09H700v16.75a8.65,8.65,0,0,0,.27,3c.5,1.62,2,3.24,5.6,3.24.65,0,4.4,0,5.52-3.09a9.87,9.87,0,0,0,.34-3.43V141.09h5.1v15.7C716.85,159.92,716.89,161.23,716.38,162.78Z"/><path class="cls-1" d="M760.26,168.33l.5-22.38-5.9,22.38h-4.59L744.36,146l.5,22.38h-5V141.09h7.41l5.33,20.22,5.25-20.22h7.37v27.24Z"/><path class="cls-2" d="M132.22,47.37A67.53,67.53,0,1,1,64.69,114.9a67.52,67.52,0,0,1,67.53-67.53m0-8.1a75.64,75.64,0,1,0,75.64,75.63,75.72,75.72,0,0,0-75.64-75.63Z"/><path class="cls-2" d="M197.87,97H123a3.9,3.9,0,1,1,0-7.79h74.83a3.9,3.9,0,0,1,0,7.79ZM110.31,84.59a8.54,8.54,0,1,0,8.54,8.53,8.53,8.53,0,0,0-8.54-8.53m0-8.11A16.64,16.64,0,1,1,93.67,93.12a16.66,16.66,0,0,1,16.64-16.64Z"/><path class="cls-2" d="M139.39,142.07H69a3.45,3.45,0,0,1,0-6.9h70.43a3.45,3.45,0,0,1,0,6.9Z"/><path class="cls-2" d="M152,129.75a8.54,8.54,0,1,1-8.53,8.54,8.54,8.54,0,0,1,8.53-8.54m0-8.1a16.64,16.64,0,1,0,16.64,16.64A16.66,16.66,0,0,0,152,121.65Z"/></svg>
