<svg xmlns="http://www.w3.org/2000/svg" viewBox="0 0 512 512"><defs><style>.cls-1{fill:#f8485e;}.cls-2{fill:#fff;}</style></defs><g id="Layer_6" data-name="Layer 6"><circle class="cls-1" cx="256" cy="256" r="256"/><path class="cls-2" d="M445.46,218.87H142.6a118.35,118.35,0,0,1,12-25.79,119.45,119.45,0,0,1,186-21.74l51.83-51.92A192.71,192.71,0,0,0,63.51,249.13V262.6a192.63,192.63,0,0,0,3.42,30.22H369.82a119.47,119.47,0,0,1-198,47.59l-34.91,35-16.92,17A192.73,192.73,0,0,0,449,257.86v-4A193,193,0,0,0,445.46,218.87ZM256.23,256l-.44.28.33-.34.07-.07.09.1.19.18Z"/></g></svg>
