<svg id="Réteg_1" data-name="Réteg 1" xmlns="http://www.w3.org/2000/svg" viewBox="0 0 1200 374.14"><defs><style>.cls-1,.cls-2{fill:#ffffff;}.cls-1{fill-rule:evenodd;}</style></defs><title>sch</title><polygon class="cls-1" points="120.2 204.92 146.36 190.88 144.87 0 74.63 3.29 71.66 219.26 112.87 219.7 120.2 204.92"/><polygon class="cls-1" points="97.32 251.04 106.86 231.82 62.29 231.4 65.62 16.28 64.53 16.32 43.62 17.09 38.88 237.28 4.61 274.08 1.8 348.63 91.55 348.49 97.32 251.04"/><polygon class="cls-1" points="176.98 174.44 174.65 12.85 155.39 12.96 154.02 13.01 155.54 185.95 176.98 174.44"/><path class="cls-1" d="M110.3,254.28l-5.84,93.38,169.4.55,1.07-51.49,7.66.44V270.7l9.84-10.94,9.12,10.57-.33,27.91,7.26.42,1.08,49.67,94.49.3-2.55-94.35L336.08,216l-147-31.73L131.7,213.43ZM388,271.43l6.93,9.85v25.16l-12.77.73-.36-26.26Zm-26.63-3.65,7.3,10.21.73,27-15.32.36-.37-27ZM330,265.23l6.94,11.3-.73,27.73H322l-.73-29.18Zm-86.08,1.09L253,255.74,261.43,266l.36,33.19-19-.37Zm-45.59-5.83,10.94-11.68,9.12,12-.73,35-20.06-.73Zm-45.6-5.11,11-13.13,10.94,14.22-.73,36.84-22.25-.73Z"/><rect class="cls-2" y="361.05" width="404.05" height="13.09"/><path class="cls-2" d="M479.37,358.54l7-17q11.24,7.88,22.1,7.88,16.71,0,16.7-11.67a16.5,16.5,0,0,0-3.94-10.43q-3.93-5-16.22-11.13t-16.56-10.14a27.09,27.09,0,0,1-6.57-9.44,31,31,0,0,1-2.29-12.11,26.47,26.47,0,0,1,9.08-20.57q9.07-8.16,23.3-8.17,18.53,0,27.21,6.93L533.42,279a35.71,35.71,0,0,0-21.08-7.15q-6.57,0-10.18,3.47a11.9,11.9,0,0,0-3.61,9q0,9.19,20.35,19.11,10.73,5.26,15.46,9.67a29.67,29.67,0,0,1,7.22,10.28,33.25,33.25,0,0,1,2.48,13.1,26.42,26.42,0,0,1-10.24,21.37q-10.25,8.39-27.46,8.38A48.82,48.82,0,0,1,479.37,358.54Z"/><path class="cls-2" d="M621,292.53l-7.8,13.64q-6.42-6-17.21-6.05-10.37,0-16.38,6.89t-6,19.08q0,24.57,23.42,24.58A26.47,26.47,0,0,0,614.89,344l6.71,14.36q-8,5-13.9,6.28a66.12,66.12,0,0,1-14,1.31q-18.09,0-28.55-10.54t-10.47-29.28q0-18.46,11.45-29.84t31.22-11.38A38.06,38.06,0,0,1,621,292.53Z"/><path class="cls-2" d="M686.73,364.45V316.31q0-7.21-4.52-11.6c-3-2.91-7-4.37-11.82-4.37a19.25,19.25,0,0,0-9.11,2.44,16.84,16.84,0,0,0-6.57,5.58v56.09H636.19V257.23l18.52-4.37v38.43q7.08-6.41,19.48-6.42,14.65,0,22.76,8.14t8.09,23.3v48.14Z"/><path class="cls-2" d="M719.63,325.21q0-17.86,10.32-29.1t27.24-11.24q17.79,0,27.64,10.8t9.85,29.54q0,18.68-10,29.69t-27.46,11q-17.79,0-27.68-11.12T719.63,325.21ZM735.89,255a9.9,9.9,0,0,1,7.33,3.07,10.1,10.1,0,0,1,3,7.36,10.35,10.35,0,0,1-10.36,10.36,10.08,10.08,0,0,1-7.36-3,9.89,9.89,0,0,1-3.07-7.33A10.48,10.48,0,0,1,735.89,255Zm2.7,70.17q0,25.82,18.6,25.82a16,16,0,0,0,13.53-6.71q5-6.7,5-19.11,0-25.45-18.53-25.46a16.09,16.09,0,0,0-13.57,6.72Q738.6,313.17,738.59,325.21ZM781.11,255a9.89,9.89,0,0,1,7.33,3.07,10.1,10.1,0,0,1,3,7.36,10.35,10.35,0,0,1-10.36,10.36,10.08,10.08,0,0,1-7.36-3,9.92,9.92,0,0,1-3.07-7.33A10.48,10.48,0,0,1,781.11,255Z"/><path class="cls-2" d="M859.52,364.45V319.3q0-10-3.83-14.59t-12.5-4.59a19.29,19.29,0,0,0-8.57,2.26A19.76,19.76,0,0,0,827.5,308v56.45H809.27V286.33H822.4l3.35,7.3q7.44-8.76,22-8.76,13.93,0,22,8.36t8.06,23.3v47.92Z"/><path class="cls-2" d="M948,364.45V316.31q0-7.21-4.52-11.6t-11.82-4.37a19.29,19.29,0,0,0-9.12,2.44,16.8,16.8,0,0,0-6.56,5.58v56.09H897.45V257.23L916,252.86v38.43q7.07-6.41,19.47-6.42,14.67,0,22.76,8.14t8.1,23.3v48.14Z"/><path class="cls-2" d="M1055.73,331h-55.8q.51,9.34,6.42,14.52t15.9,5.18q12.46,0,19-6.5l7.08,13.94q-9.63,7.8-28.74,7.8-17.87,0-28.26-10.47t-10.4-29.21q0-18.45,11.42-29.9a37.28,37.28,0,0,1,27.39-11.46q17,0,27.28,10.14t10.28,25.82A51,51,0,0,1,1055.73,331Zm-55.14-13.71H1039q-1.89-17.14-19-17.14Q1004.38,300.12,1000.59,317.26Z"/><path class="cls-2" d="M1117,303.33a19.16,19.16,0,0,0-10.73-3.21q-6.35,0-11.26,5.76a20.91,20.91,0,0,0-4.93,14.08v44.49h-18.23V286.33h18.23v7.15q7.67-8.6,20.35-8.61,9.35,0,14.3,2.85Z"/><path class="cls-2" d="M1130.56,364.45v-6.2l42.38-56h-41.65v-15.9h68.27v6.42l-40.84,55.8H1200v15.9Z"/></svg>
