<svg xmlns="http://www.w3.org/2000/svg" viewBox="0 0 995.21 1000"><defs><style>.cls-1{fill:#ffffff;}</style></defs><title>VIK</title><g id="Layer_2" data-name="Layer 2"><g id="Réteg_2" data-name="Réteg 2"><path class="cls-1" d="M492,281.36C504.69,262,517,244.1,528.28,228.61a277.69,277.69,0,0,0-35.65-2.37c-152.18,0-275.55,123.37-275.55,275.55A275.26,275.26,0,0,0,338.64,730.33c6.29-18.93,12.82-37,19.4-54a220,220,0,0,1-85.85-174.53C272.19,380.25,370.56,281.69,492,281.36Z"/><path class="cls-1" d="M492.63,722.23a221.77,221.77,0,0,1-38.3-3.38c-13.06,20-23.76,37.13-31.39,49.58a276,276,0,0,0,69.69,8.91c152.18,0,275.55-123.37,275.55-275.55a274.56,274.56,0,0,0-77.65-191.64c-13.82,13.46-26.72,26.57-38.76,39.19a219.63,219.63,0,0,1,61.3,152.45C713.07,623.54,614.38,722.23,492.63,722.23Z"/><path class="cls-1" d="M614.58,490.06S590,473.65,539.53,458.4c0,0,92.63-126.63,234.51-241.54,0,0-127-29.32-192.3-29.32-34,25.8-143,194.65-193.47,307.21,0,0,42.21,19.94,55.11,32.84,0,0-59.8,100.84-100.84,236.85l-36.35-25.79,24.63,125.46L444,794.93,397.65,783.2S502.6,602,614.58,490.06Z"/><path class="cls-1" d="M379.06,919.92q-8.74,4.35-11.11,14.64a17,17,0,0,0,2,13.05q3.66,6,11.42,8.83l-.05.21a22.15,22.15,0,0,0-11.92,3.92,15.77,15.77,0,0,0-6.53,9.67,15.14,15.14,0,0,0,3.77,14.49q5.69,6.15,18.22,9l27.27,6.25,17.17-74.91-28.78-6.59Q387.81,915.58,379.06,919.92Zm19.09,63.78-6.32-1.45q-12.33-2.84-10.44-11.08a8.83,8.83,0,0,1,4.6-6.28q3.58-1.85,8.81-.65l7.42,1.7Zm6.94-30.3-9.24-2.12q-5.87-1.34-8.53-4.64a8.68,8.68,0,0,1-1.65-7.81,9.27,9.27,0,0,1,5-6.65q3.93-1.95,9.78-.62l9.14,2.1Z"/><path class="cls-1" d="M349.35,903.83l-17.63,38.66q-3.56,7.82-7.63,18.44l-.44-.21A101.51,101.51,0,0,0,325.9,950l4.77-54.66-12.87-5.86-38.06,40.07a80.27,80.27,0,0,0-6.42,8.27l-.39-.18q4.32-7.92,7.41-14.7l19.07-41.84L283.86,874,252,943.9l22.48,10.25,33.14-34.84a110.73,110.73,0,0,0,7.38-8.83l.3.14a64.19,64.19,0,0,0-2.08,11.13l-4.6,48,23.06,10.51,31.88-69.93Z"/><polygon class="cls-1" points="234.88 838.39 226.78 849.86 250.3 866.45 240.16 880.81 219.63 866.32 211.53 877.79 232.07 892.28 222.22 906.25 200.15 890.68 192.02 902.2 228.24 927.74 272.53 864.95 234.88 838.39"/><path class="cls-1" d="M98.29,807.52l11.85,13.69,50.69-22.84a43.61,43.61,0,0,0,7-3.91l.21.24a38.69,38.69,0,0,0-4.78,6.19L133.37,848l12.21,14.09,41-70.08L173.7,777.21Z"/><polygon class="cls-1" points="101.05 786.38 142.58 758.44 146.17 763.78 157.29 756.3 140.44 731.27 129.33 738.74 132.92 744.08 91.39 772.02 87.8 766.69 76.69 774.17 93.53 799.2 104.64 791.72 101.05 786.38"/><polygon class="cls-1" points="114.23 683.5 101.84 690.1 115.23 715.21 59.8 744.75 67.94 760.03 135.76 723.88 114.23 683.5"/><path class="cls-1" d="M95.33,633.73l-.75.29-3.73-17.46L73,614.84l-5.71-26.73,15.58-8.91-3.94-18.45L9.48,603.53l4.29,20.07,79.15,11-10.71,4.06L92.3,665.32,33.57,687.59l6.14,16.19,71.86-27.26ZM32,611.27a29.38,29.38,0,0,0-6.83.08l-.1-.41a34.53,34.53,0,0,0,6.5-2.7l23.54-13.47L59.23,614Z"/><path class="cls-1" d="M78,539.63l-42.49.69q-8.56.13-19.92,1v-.48a101.7,101.7,0,0,0,10.68-2.58l51.41-19.16L77.44,505,24.91,487.8a80.45,80.45,0,0,0-10.22-2.24v-.43q9,.5,16.46.38l46-.75-.27-17.09L0,468.91l.4,24.7,45.69,15a112.48,112.48,0,0,0,11.14,2.87v.32a64.81,64.81,0,0,0-10.94,2.91L1,531.12l.41,25.35,76.84-1.25Z"/><path class="cls-1" d="M42.24,451.28q16.88,3.57,29.54-4.39t16.07-24.1q3.51-16.57-5.17-29.16T56.27,377.29Q39,373.65,26.39,381.36t-16,23.81q-3.6,17,5.23,29.69T42.24,451.28ZM24.83,408.71a16.62,16.62,0,0,1,9.38-12.26q7.55-3.6,19.24-1.13,11.22,2.37,16.46,8.84t3.38,15.23a17.16,17.16,0,0,1-9.4,12.36q-7.61,3.87-18.78,1.51-11-2.33-16.59-9A17.4,17.4,0,0,1,24.83,408.71Z"/><path class="cls-1" d="M36.71,354.09a20.7,20.7,0,0,0,8.72,6,20,20,0,0,0,13.79.66q6.66-2.14,13.43-9.16,2.64-2.76,5-5.1a37.16,37.16,0,0,1,4.62-3.86,13.76,13.76,0,0,1,4.32-2.08,6.66,6.66,0,0,1,4.22.27,6.25,6.25,0,0,1,2.57,1.87,7.15,7.15,0,0,1,1.41,3.17,13.34,13.34,0,0,1,0,4.39,23.82,23.82,0,0,1-1.53,5.53,32.36,32.36,0,0,1-5.85,9.57,33.06,33.06,0,0,1-9.16,7.29l16,6.25a36.1,36.1,0,0,0,6.6-8,66.05,66.05,0,0,0,5.39-10.81,56.45,56.45,0,0,0,3.17-11.34,28.69,28.69,0,0,0-.07-10.47,19.71,19.71,0,0,0-4.17-8.74,21.86,21.86,0,0,0-9.17-6.21,22.13,22.13,0,0,0-8.11-1.68,19,19,0,0,0-7.28,1.46,29.6,29.6,0,0,0-6.87,4.08A66.59,66.59,0,0,0,67,333.36c-1.69,1.76-3.26,3.31-4.73,4.65a30.65,30.65,0,0,1-4.16,3.27,11.86,11.86,0,0,1-3.75,1.64,6.1,6.1,0,0,1-3.59-.32,5.8,5.8,0,0,1-2.63-2,7.87,7.87,0,0,1-1.34-3.28,13.63,13.63,0,0,1,0-4.37,23,23,0,0,1,1.43-5.2,34.29,34.29,0,0,1,1.95-4.1,35.89,35.89,0,0,1,2.67-4.1,34.4,34.4,0,0,1,3.28-3.75,25.77,25.77,0,0,1,3.73-3.06l-14.92-5.84A41.56,41.56,0,0,0,39.74,314a68.9,68.9,0,0,0-4.56,9.64,49.91,49.91,0,0,0-3,11.26,29.52,29.52,0,0,0,.31,10.45A20.55,20.55,0,0,0,36.71,354.09Z"/><path class="cls-1" d="M127.21,309.07,91.28,286.38Q84,281.8,74.06,276.32l.25-.4a102.13,102.13,0,0,0,10.35,3.68l53.52,12.12,7.55-12-34.56-43.13a80.66,80.66,0,0,0-7.32-7.47l.23-.37q7.26,5.36,13.56,9.33l38.88,24.56,9.13-14.46-65-41L87.48,228.08l30,37.54a109.26,109.26,0,0,0,7.75,8.5l-.18.28a64.1,64.1,0,0,0-10.74-3.56l-46.9-11L53.91,281.22l65,41Z"/><polygon class="cls-1" points="130.82 163.59 129.54 139.52 119.3 150.56 122.52 172.54 130.82 163.59"/><polygon class="cls-1" points="175.74 238.65 207.08 204.86 196.79 195.31 177.22 216.41 164.33 204.46 181.42 186.03 171.13 176.48 154.04 194.91 141.5 183.28 159.87 163.48 149.54 153.9 119.4 186.39 175.74 238.65"/><path class="cls-1" d="M227.34,187.59l-18.42-23,3.64-2.91a6.47,6.47,0,0,1,2.73-1.34,9.72,9.72,0,0,1,3.26-.14,22,22,0,0,1,3.84.8q2.07.6,4.52,1.52l21.7,7.94,15.5-12.45-25.55-8.62q-2-.67-4.2-1.26a36,36,0,0,0-4.41-.9,23.14,23.14,0,0,0-4.18-.25,10.8,10.8,0,0,0-3.68.72l-.14-.17a27.78,27.78,0,0,0,3.6-6.87,22.35,22.35,0,0,0,1.29-7.08,20.9,20.9,0,0,0-1.13-7,21.5,21.5,0,0,0-3.69-6.55q-13.08-16.31-34.9,1.21L165.73,138.5l48.11,59.92Zm-20.76-37.84-5.85,4.7-13.38-16.67,6.1-4.9q9.39-7.55,15.71.3a10.75,10.75,0,0,1,2.39,8.46A12.41,12.41,0,0,1,206.58,149.75Z"/><path class="cls-1" d="M281.66,148.44l-20.14-37.11q-4-7.35-6.31-10.72l.19-.11a68.59,68.59,0,0,0,6.43,3.77L312.7,131.6l15.35-8.34L291.4,55.72,277,63.52l20.28,37.35a79.45,79.45,0,0,0,5.41,9.07l-.19.1c-2-1.25-4.15-2.48-6.38-3.66L247,79.8l-16.39,8.9,36.66,67.54Z"/><path class="cls-1" d="M343.34,107.39q13.14,7.15,28.89,2.21,16.15-5.05,22.89-18.79t1.32-31Q391.18,43,378.26,35.72T349.65,33.4Q333,38.6,326.32,52.49t-1.26,31.29Q330.21,100.25,343.34,107.39ZM341.88,58.6a17.42,17.42,0,0,1,11.76-10.84,16.6,16.6,0,0,1,15.29,2.17q6.84,4.83,10.41,16.23,3.44,10.95.35,18.68t-11.63,10.4a17.13,17.13,0,0,1-15.38-2.15q-7.1-4.73-10.51-15.63Q338.81,66.72,341.88,58.6Z"/><path class="cls-1" d="M329,31.54a8.54,8.54,0,0,0,6.32.24,8.64,8.64,0,0,0,5-3.71,6.82,6.82,0,0,0,.59-5.75A6.81,6.81,0,0,0,337.15,18a8.53,8.53,0,0,0-6.26-.2,8.67,8.67,0,0,0-5,3.73,6.68,6.68,0,0,0-.67,5.75A6.83,6.83,0,0,0,329,31.54Z"/><path class="cls-1" d="M352.45,24.21a8.42,8.42,0,0,0,6.25.23,8.56,8.56,0,0,0,5.06-3.74,6.8,6.8,0,0,0,.62-5.73,6.73,6.73,0,0,0-3.8-4.34,9.54,9.54,0,0,0-11.29,3.51,6.75,6.75,0,0,0-.61,5.75A6.8,6.8,0,0,0,352.45,24.21Z"/><path class="cls-1" d="M434.44,93.74l-4.79-37.31.27,0a31.38,31.38,0,0,0,2.56,3.94L458.94,90.6l20-2.57,0,1.32,30.17-.49-.22-13.39-6.43.1-.81-50,6.43-.11L507.89,12l-30.17.48.22,13.4,6.43-.1.81,50-6.43.11.16,10L446.65,51.66l21.91-39.77L448.1,14.51,431.13,49c-.76,2-1.28,3.48-1.58,4.53l-.27,0-4.62-36-17.17,2.21L417.27,96Z"/><polygon class="cls-1" points="612.22 89.47 584.05 83.59 587.64 66.38 612.25 71.52 615.11 57.77 590.51 52.63 594 35.9 620.44 41.42 623.32 27.62 579.93 18.57 564.23 93.8 609.35 103.21 612.22 89.47"/><polygon class="cls-1" points="625.32 3.08 610.58 0 593.41 14.1 605.37 16.6 625.32 3.08"/><path class="cls-1" d="M616.7,102.24a36.54,36.54,0,0,0,8.22,6.36,65.85,65.85,0,0,0,11,5.07,56.66,56.66,0,0,0,11.41,2.84,28.89,28.89,0,0,0,10.48-.38,19.77,19.77,0,0,0,8.61-4.43,21.81,21.81,0,0,0,5.94-9.34,22.18,22.18,0,0,0,1.45-8.17A19.12,19.12,0,0,0,672.09,87a29.12,29.12,0,0,0-4.27-6.74,66.67,66.67,0,0,0-6.41-6.65c-1.81-1.63-3.4-3.16-4.79-4.59a30.57,30.57,0,0,1-3.38-4.06,11.54,11.54,0,0,1-1.75-3.7,6.09,6.09,0,0,1,.2-3.6,5.82,5.82,0,0,1,1.94-2.69,7.72,7.72,0,0,1,3.25-1.43,13.84,13.84,0,0,1,4.36-.11,24,24,0,0,1,5.24,1.27A36.66,36.66,0,0,1,674.81,59a32.57,32.57,0,0,1,3.84,3.18,25.44,25.44,0,0,1,3.17,3.63l5.41-15.08a41.9,41.9,0,0,0-7.3-5,69.25,69.25,0,0,0-9.77-4.27,48.87,48.87,0,0,0-11.34-2.67,29.45,29.45,0,0,0-10.44.61,20.46,20.46,0,0,0-8.57,4.47,20.7,20.7,0,0,0-5.75,8.9,20,20,0,0,0-.25,13.8q2.33,6.58,9.54,13.15,2.85,2.56,5.25,4.9a37,37,0,0,1,4,4.51,13.56,13.56,0,0,1,2.2,4.26,6.54,6.54,0,0,1-.14,4.21,6.19,6.19,0,0,1-1.79,2.64,7.19,7.19,0,0,1-3.13,1.49,13.3,13.3,0,0,1-4.39.17,24.85,24.85,0,0,1-5.57-1.37,33,33,0,0,1-17.29-14.51Z"/><polygon class="cls-1" points="740.95 149.81 735.5 146.39 762.1 104 767.55 107.41 774.67 96.06 749.11 80.03 741.99 91.38 747.44 94.8 720.84 137.19 715.39 133.78 708.27 145.13 733.83 161.16 740.95 149.81"/><path class="cls-1" d="M753.51,175.21l27.1-32.39q5.35-6.42,7.64-9.81l.17.14a70,70,0,0,0-1.14,7.36l-6.69,57.36L794,209.08l49.32-58.94-12.54-10.49L803.5,172.24a83.59,83.59,0,0,0-6.45,8.37l-.16-.13c.42-2.35.77-4.77,1.06-7.29l6.63-55.44-14.3-12L741,164.72Z"/><polygon class="cls-1" points="814.37 232.75 836.94 213.23 853.25 232.07 863.86 222.89 847.57 204.04 861.83 191.7 879.57 212.21 890.23 202.99 861.17 169.39 803.04 219.66 814.37 232.75"/><path class="cls-1" d="M849,260q-3.65,14.5,5.06,28.52Q863,302.91,877.92,306t30.37-6.45q15-9.3,18.77-23.61t-4.87-28.29q-9.2-14.79-24.31-17.83t-30.62,6.57Q852.61,245.5,849,260Zm28.69-8.6q9.57-5.92,18.2-5a17.44,17.44,0,0,1,13.44,8.69,16.63,16.63,0,0,1,1.7,15.34q-3,7.83-13.12,14.13-9.75,6-18,5t-13-8.66a17.17,17.17,0,0,1-1.75-15.43Q868,257.42,877.64,251.39Z"/><path class="cls-1" d="M884.8,344.5l27.31-10.92,1.73,4.33a6.72,6.72,0,0,1,.49,3,10.21,10.21,0,0,1-.82,3.15,22,22,0,0,1-1.88,3.44c-.79,1.2-1.72,2.5-2.79,3.88l-13.92,18.44,7.38,18.46L918,366.37q1.23-1.69,2.43-3.66a40,40,0,0,0,2.14-3.94,23.67,23.67,0,0,0,1.47-3.93,11.31,11.31,0,0,0,.38-3.73l.2-.08a28.1,28.1,0,0,0,5.52,5.44,22.35,22.35,0,0,0,6.39,3.3,20.61,20.61,0,0,0,7,1,21.77,21.77,0,0,0,7.35-1.6q19.41-7.75,9-33.74L949.73,299.9l-71.36,28.53Zm59.31-23.71,2.9,7.26q4.49,11.2-4.87,14.94a10.73,10.73,0,0,1-8.79-.18,12.46,12.46,0,0,1-6.31-7.12l-2.79-7Z"/><path class="cls-1" d="M906.55,406.55,948.38,399q8.43-1.51,19.49-4.23l.09.48a99,99,0,0,0-10.12,4.28L910.2,426.75l2.52,13.92,54.62,8.43a80,80,0,0,0,10.45.56l.07.42q-9,1-16.3,2.3l-45.25,8.17,3,16.82L995,463.71l-4.39-24.31L943.07,432a110.91,110.91,0,0,0-11.46-1l-.05-.31A64.5,64.5,0,0,0,941.88,426l42-23.54-4.51-24.95L903.78,391.2Z"/><path class="cls-1" d="M919.11,482.44l-.48,18.75,17,5.85-.71,27.32-17.23,5-.48,18.86,77.52-25.34.53-20.52ZM981.24,522a33.48,33.48,0,0,0-7,1.11l-26,7.59.51-19.66,25.82,9a29.44,29.44,0,0,0,6.66,1.52Z"/><polygon class="cls-1" points="974.39 590.08 912.7 578.57 909.52 595.63 971.21 607.15 967.18 628.7 981.04 631.28 992.25 571.23 978.39 568.64 974.39 590.08"/><polygon class="cls-1" points="963.23 642.59 915.36 627.98 917.23 621.83 904.42 617.92 895.61 646.78 908.42 650.68 910.31 644.54 958.18 659.14 956.3 665.29 969.12 669.2 977.92 640.35 965.11 636.43 963.23 642.59"/><path class="cls-1" d="M886.42,670.54l34.4,15.21-.1.24a32.65,32.65,0,0,0-4.7.15l-39.59,7-8.06,18.25-8.8,13.32,11.29,13.94-15.06,22.8-17.28-4.85-10.4,15.74,79.19,19.54,11.31-17.13-46.41-62.59,43.91-9.38,22.69,39.32,8.34-18.87-20.73-32.36q-1.93-2.5-3-3.7l.11-.24,33.23,14.69,7-15.83-70.28-31.07ZM897,770.38a29,29,0,0,0,4.85,4.8l-.23.36a34,34,0,0,0-6.48-2.73l-26.1-7.35,10.83-16.41Z"/><polygon class="cls-1" points="870.74 817.91 832.76 785.31 836.95 780.43 826.78 771.7 807.13 794.6 817.3 803.33 821.49 798.44 859.47 831.05 855.28 835.93 865.44 844.65 885.1 821.76 874.93 813.03 870.74 817.91"/><path class="cls-1" d="M746.46,848.63,768,879.45l-.22.16a31.62,31.62,0,0,0-4.09-2.3l-37.5-14.51-16.9,11.83-14.88,7,2.39,17.77-24.72,11.66L659.88,898l-17.06,8,57.49,57.85,18.56-8.75-7.21-78.59,43.53,15.08L754.26,937l16.91-11.83-1-38.42c-.25-2.1-.48-3.68-.71-4.74l.22-.16,20.84,29.77,14.18-9.93-44.07-62.95ZM704,947a33.94,33.94,0,0,0-4.11-5.71L681.37,921.4,699.16,913l3.54,27.13a29.26,29.26,0,0,0,1.65,6.63Z"/><path class="cls-1" d="M619.55,912.07l7.84,28.36-4.49,1.24a6.56,6.56,0,0,1-3,.15,10,10,0,0,1-3.05-1.16,22.26,22.26,0,0,1-3.21-2.25q-1.67-1.38-3.55-3.19l-16.79-15.88-19.16,5.3,20,18q1.56,1.41,3.36,2.82a37.73,37.73,0,0,0,3.69,2.57,23.47,23.47,0,0,0,3.75,1.88,10.69,10.69,0,0,0,3.67.8l0,.2a28.34,28.34,0,0,0-6,4.89,22.15,22.15,0,0,0-4,6,21,21,0,0,0-1.73,6.84,22.14,22.14,0,0,0,.79,7.48q5.58,20.15,32.54,12.69l26.45-7.31-20.48-74.07ZM629,975.73q-11.62,3.21-14.32-6.5a10.76,10.76,0,0,1,1.16-8.71,12.39,12.39,0,0,1,7.77-5.49l7.23-2,5.69,20.61Z"/><circle class="cls-1" cx="502.74" cy="969.83" r="20.67"/></g></g></svg>
