<svg xmlns="http://www.w3.org/2000/svg" width="121.08" height="30.31" viewBox="0 0 121.08 30.31"><title>logo</title><path d="M0,25.68l3.56-3.44a9.09,9.09,0,0,0,7.16,3.44c3.24,0,4.92-1.56,4.92-3.92,0-1.88-.88-3-3.8-3.56L9.2,17.8C3.56,16.92.84,14.24.84,9.68c0-5,3.88-8.24,10.12-8.24,4.2,0,7.32,1.44,9.56,4.12L16.92,9a7.43,7.43,0,0,0-6.24-2.88c-3,0-4.56,1.2-4.56,3.28s1.2,3,3.88,3.48l2.6.48c5.64,1,8.28,3.52,8.28,8.12,0,5.28-3.8,8.87-10.48,8.87A13,13,0,0,1,0,25.68Z" style="fill:#919191"/><path d="M25.84.24H31v12.2h.2a5.76,5.76,0,0,1,5.84-4c4.28,0,6.68,3,6.68,8.16V29.83H38.56V17.16c0-3-1-4.48-3.44-4.48C33,12.68,31,13.8,31,16V29.83H25.84Z" style="fill:#919191"/><path d="M48.92,3.36v-.8c0-1.48.88-2.56,3-2.56s3,1.08,3,2.56v.8c0,1.48-.92,2.56-3,2.56S48.92,4.84,48.92,3.36ZM49.36,9h5.12V29.83H49.36Z" style="fill:#919191"/><path d="M65.32,19.24,58.36,9H64.2l4.32,6.92h.16L73,9H78.4L71.32,19.32l7.12,10.51H72.6l-4.4-7.19H68l-4.4,7.19H58.2Z" style="fill:#919191"/><path d="M81.72,3.36v-.8c0-1.48.88-2.56,3-2.56s3,1.08,3,2.56v.8c0,1.48-.92,2.56-3,2.56S81.72,4.84,81.72,3.36ZM82.16,9h5.12V29.83H82.16Z" style="fill:#919191"/><path d="M91.8,19.36c0-6.6,3.56-10.88,9.68-10.88C108,8.48,111,13.28,111,19v1.68H97.12v.52c0,3,1.72,5,5.08,5a6.34,6.34,0,0,0,5.32-2.84l2.75,3.08c-1.71,2.35-4.75,3.83-8.63,3.83C95.48,30.31,91.8,26,91.8,19.36Zm5.32-2.16v.32h8.56v-.36c0-2.88-1.48-4.84-4.12-4.84S97.12,14.32,97.12,17.2Z" style="fill:#919191"/><path d="M114.68,27.36v-.72c0-1.72,1-3,3.2-3s3.2,1.24,3.2,3v.72c0,1.68-1,2.91-3.2,2.91S114.68,29,114.68,27.36Z" style="fill:#919191"/></svg>