<svg xmlns="http://www.w3.org/2000/svg" viewBox="0 0 1259.51 337.41"><defs><style>.a{fill:#f8485e}.b{fill:#fff}</style></defs><path class="a" d="M563 0v93.23l-.08-.07a70 70 0 0 0-113.35 52.55v4.77A70 70 0 0 0 562.87 203h.13a70 70 0 0 0 26.59-54.21V78h.14V0zm-43.49 191.42a43.39 43.39 0 1 1 43.36-44.87v2.98a43.39 43.39 0 0 1-43.36 41.89zM919.66 78.53h26.49V218.1h-26.49zM1249.08 111.15a70 70 0 0 0-129.59 34.35v5a70.07 70.07 0 0 0 26.67 52.58v-52.85q-.06-1.13-.06-2.28t.06-2.28a43.13 43.13 0 0 1 6.41-20.52 43.41 43.41 0 0 1 73.84 0 43.13 43.13 0 0 1 6.43 21.29V218h26.67v-70.78a69.68 69.68 0 0 0-10.43-36.07zM745 134.63a70 70 0 0 0-138.73 11v4.89a70 70 0 0 0 119.47 47.11l-18.83-18.85A43.39 43.39 0 0 1 635 161.49h110a70.23 70.23 0 0 0 1.28-12.7v-1.45a70.21 70.21 0 0 0-1.28-12.71zm-110 0a43.4 43.4 0 0 1 82.52 0zM1092.4 111.1a70.07 70.07 0 0 0-119.17 0 69.6 69.6 0 0 0-10 29q-.3 2.69-.4 5.44v4.89a70 70 0 0 0 140-1.72v-1.45a69.69 69.69 0 0 0-10.43-36.16zm-59.6 80.18a43.37 43.37 0 0 1-43.32-41.1q-.06-1.13-.06-2.28t.06-2.28a43.13 43.13 0 0 1 6.41-20.52 43.41 43.41 0 0 1 73.84 0 43.13 43.13 0 0 1 6.43 21.29v2.98a43.38 43.38 0 0 1-43.36 41.89zM1102.83 267.38a70 70 0 0 1-119.5 49.57l6.15-6.16 12.68-12.7a43.38 43.38 0 0 0 74-29.22v-1.49-1.49a43.3 43.3 0 0 0-12.71-29.21l12.71-12.73 6.12-6.13a69.87 69.87 0 0 1 20.55 49.56z"/><path class="b" d="M276.15 197.63a70 70 0 0 1-119.47-47.11v-4.89a70 70 0 0 1 119.47-47.12l-18.83 18.86a43.38 43.38 0 1 0 0 61.4zM412.31 98.48A70 70 0 0 0 319.5 93V0h-26.69v150.46a70.08 70.08 0 0 0 26.67 52.58v-52.72q-.06-1.13-.06-2.28t.06-2.28a43.13 43.13 0 0 1 6.41-20.52 43.39 43.39 0 0 1 80.25 20.87v71.99h26.69V148a69.81 69.81 0 0 0-20.52-49.52zM138.73 134.63h-110a43.13 43.13 0 0 1 4.35-9.37 43.39 43.39 0 0 1 67.56-7.89l18.83-18.86A70 70 0 0 0 0 145.62v4.89a70.09 70.09 0 0 0 1.24 11h110a43.39 43.39 0 0 1-71.91 17.29l-12.68 12.7-6.15 6.16A70 70 0 0 0 140 148.8v-1.45a70.22 70.22 0 0 0-1.27-12.72zM70 148.13l-.16.1.12-.12.07.07z"/><circle class="a" cx="932.35" cy="13.33" r="13.33"/><path class="a" d="M901.72 134.63h-110a43.13 43.13 0 0 1 4.35-9.37 43.39 43.39 0 0 1 67.56-7.89l18.83-18.86A70 70 0 0 0 763 145.62v4.89a70.09 70.09 0 0 0 1.24 11h110a43.39 43.39 0 0 1-71.91 17.29l-12.68 12.7-6.15 6.16A70 70 0 0 0 903 148.8v-1.45a70.22 70.22 0 0 0-1.28-12.72zM833 148.13l-.16.1.12-.12.07.07z"/></svg>