<svg xmlns="http://www.w3.org/2000/svg" viewBox="0 0 1259.51 378.85"><defs><style>.a{fill:#f8485e}</style></defs><path class="a" d="M563 41.44v93.23l-.08-.07a70 70 0 0 0-113.35 52.55v4.77a70 70 0 0 0 113.35 52.55l.08-.07a70 70 0 0 0 26.59-54.21V119.4h.14v-78zm-43.49 191.42A43.39 43.39 0 1 1 562.87 188v2.98a43.39 43.39 0 0 1-43.36 41.89zm400.15-112.89h26.49v139.57h-26.49zm329.42 32.61a70 70 0 0 0-129.59 34.35v5a70.07 70.07 0 0 0 26.67 52.58v-52.85q-.06-1.13-.06-2.28t.06-2.28a43.13 43.13 0 0 1 6.41-20.52 43.41 43.41 0 0 1 73.84 0 43.13 43.13 0 0 1 6.43 21.29v71.55h26.67v-70.76a69.68 69.68 0 0 0-10.43-36.08zM745 176.07a70 70 0 0 0-138.73 11V192a70 70 0 0 0 119.47 47.11l-18.83-18.85A43.39 43.39 0 0 1 635 202.93h110a70.23 70.23 0 0 0 1.28-12.7v-1.45a70.21 70.21 0 0 0-1.28-12.71zm-110 0a43.4 43.4 0 0 1 82.52 0zm457.4-23.53a70.07 70.07 0 0 0-119.17 0 69.6 69.6 0 0 0-10 29q-.3 2.69-.4 5.44v4.89a70 70 0 0 0 140-1.72v-1.45a69.69 69.69 0 0 0-10.43-36.16zm-59.6 80.18a43.37 43.37 0 0 1-43.32-41.1q-.06-1.13-.06-2.28t.06-2.28a43.13 43.13 0 0 1 6.41-20.52 43.41 43.41 0 0 1 73.84 0 43.13 43.13 0 0 1 6.43 21.29v2.98a43.38 43.38 0 0 1-43.36 41.89zm70.03 76.09a70 70 0 0 1-119.5 49.57l6.15-6.16 12.68-12.7a43.38 43.38 0 0 0 74-29.22v-2.98a43.3 43.3 0 0 0-12.71-29.21l12.71-12.73 6.12-6.13a69.87 69.87 0 0 1 20.55 49.56z"/><path d="M276.15 239.07A70 70 0 0 1 156.68 192v-4.89A70 70 0 0 1 276.15 140l-18.83 18.86a43.38 43.38 0 1 0 0 61.4zm136.16-99.16a70 70 0 0 0-92.8-5.47v-93h-26.7V191.9a70.08 70.08 0 0 0 26.69 52.6v-52.74q-.06-1.13-.06-2.28t.06-2.28a43.13 43.13 0 0 1 6.41-20.52 43.39 43.39 0 0 1 80.25 20.87v71.99h26.69v-70.06a69.81 69.81 0 0 0-20.54-49.57zm-273.58 36.16h-110a43.13 43.13 0 0 1 4.35-9.37 43.39 43.39 0 0 1 67.56-7.89l18.83-18.86A70 70 0 0 0 0 187.06V192a70.09 70.09 0 0 0 1.24 11h110a43.39 43.39 0 0 1-71.91 17.29l-12.68 12.7-6.15 6.16A70 70 0 0 0 140 190.23v-1.45a70.22 70.22 0 0 0-1.27-12.71zM70 189.57l-.16.1.12-.12.07.07z" fill="#fff"/><circle class="a" cx="932.35" cy="54.77" r="13.33"/><path class="a" d="M901.72 176.07h-110a43.13 43.13 0 0 1 4.35-9.37 43.39 43.39 0 0 1 67.56-7.89l18.83-18.86A70 70 0 0 0 763 187.06V192a70.09 70.09 0 0 0 1.24 11h110a43.39 43.39 0 0 1-71.91 17.29l-12.68 12.7-6.15 6.16A70 70 0 0 0 903 190.23v-1.45a70.22 70.22 0 0 0-1.28-12.71zM833 189.57l-.16.1.12-.12.07.07z"/></svg>