<svg xmlns="http://www.w3.org/2000/svg" viewBox="0 0 835 393"><defs><style>.a,.b{fill:#fff;}.a{fill-rule:evenodd;}</style></defs><title>schönherz-logo</title><polygon class="a" points="89.65 208.76 107.61 199.12 106.59 68.05 58.36 70.31 56.32 218.6 84.61 218.9 89.65 208.76"/><polygon class="a" points="73.94 240.43 80.48 227.22 49.88 226.94 52.17 79.23 51.42 79.26 37.06 79.79 33.81 230.98 10.28 256.24 8.35 307.44 69.97 307.34 73.94 240.43"/><polygon class="a" points="128.63 187.83 127.03 76.88 113.81 76.95 112.87 76.98 113.91 195.73 128.63 187.83"/><path class="a" d="M82.85,242.65l-4,64.12,116.31.38.74-35.36,5.26.3V253.92l6.76-7.51,6.26,7.26-.23,19.16,5,.29.74,34.1,64.88.22-1.76-64.79-44.91-26.3L137,194.56l-39.41,20Zm190.68,11.77,4.75,6.77v17.28l-8.76.5-.25-18Zm-18.29-2.5,5,7,.5,18.53-10.52.26L250,259.18Zm-21.54-1.75,4.76,7.76-.5,19h-9.77l-.5-20Zm-59.1.75,6.26-7.27,5.76,7,.25,22.79-13-.25Zm-31.31-4,7.51-8,6.27,8.27-.51,24-13.77-.5ZM112,243.4l7.52-9,7.51,9.76-.5,25.3-15.28-.5Z"/><rect class="b" x="7.11" y="315.96" width="277.43" height="8.99"/><path class="b" d="M336.26,314.24l4.81-11.67q7.71,5.42,15.17,5.41,11.47,0,11.47-8a11.37,11.37,0,0,0-2.7-7.17q-2.7-3.41-11.15-7.63t-11.36-7a18.55,18.55,0,0,1-4.51-6.49,21.29,21.29,0,0,1-1.58-8.31,18.19,18.19,0,0,1,6.24-14.13q6.23-5.61,16-5.61,12.72,0,18.68,4.76l-4,11.22a24.49,24.49,0,0,0-14.47-4.91q-4.51,0-7,2.38a8.21,8.21,0,0,0-2.48,6.19q0,6.3,14,13.12,7.35,3.6,10.61,6.63a20.4,20.4,0,0,1,5,7.06,22.83,22.83,0,0,1,1.7,9,18.14,18.14,0,0,1-7,14.68q-7,5.76-18.86,5.76A33.56,33.56,0,0,1,336.26,314.24Z"/><path class="b" d="M433.52,268.91l-5.36,9.37q-4.41-4.15-11.82-4.16-7.11,0-11.24,4.74T401,292q0,16.88,16.07,16.88a18.17,18.17,0,0,0,12.27-4.61l4.61,9.87a32,32,0,0,1-9.54,4.31,45.22,45.22,0,0,1-9.64.9q-12.42,0-19.61-7.24T388,292q0-12.66,7.86-20.48t21.43-7.81A26.14,26.14,0,0,1,433.52,268.91Z"/><path class="b" d="M478.64,318.3V285.24a10.57,10.57,0,0,0-3.1-8,11.21,11.21,0,0,0-8.12-3,13.25,13.25,0,0,0-6.26,1.68,11.58,11.58,0,0,0-4.5,3.83V318.3H443.94V244.68l12.72-3v26.39q4.86-4.4,13.37-4.4,10.07,0,15.63,5.58t5.55,16V318.3Z"/><path class="b" d="M501.23,291.35q0-12.27,7.09-20t18.7-7.71q12.22,0,19,7.41t6.76,20.28q0,12.82-6.88,20.38T527,319.3q-12.22,0-19-7.64T501.23,291.35Zm11.17-48.18a6.78,6.78,0,0,1,5,2.11,7.09,7.09,0,1,1-5-2.11Zm1.85,48.18q0,17.73,12.77,17.73a11,11,0,0,0,9.29-4.61q3.44-4.61,3.43-13.12,0-17.48-12.72-17.48a11,11,0,0,0-9.31,4.61Q514.24,283.09,514.25,291.35Zm29.2-48.18a6.78,6.78,0,0,1,5,2.11,7.09,7.09,0,1,1-5-2.11Z"/><path class="b" d="M597.29,318.3v-31q0-6.85-2.63-10t-8.59-3.16a13.27,13.27,0,0,0-5.89,1.56,13.62,13.62,0,0,0-4.88,3.85V318.3H562.78V264.66h9l2.31,5q5.1-6,15.07-6,9.57,0,15.1,5.73t5.54,16V318.3Z"/><path class="b" d="M658,318.3V285.24a10.57,10.57,0,0,0-3.11-8,11.18,11.18,0,0,0-8.11-3,13.22,13.22,0,0,0-6.26,1.68,11.54,11.54,0,0,0-4.51,3.83V318.3H623.33V244.68l12.72-3v26.39q4.86-4.4,13.37-4.4,10.07,0,15.63,5.58t5.56,16V318.3Z"/><path class="b" d="M732,295.31H693.69q.36,6.4,4.41,10c2.71,2.38,6.34,3.56,10.92,3.56q8.57,0,13-4.46l4.86,9.57q-6.61,5.35-19.73,5.36-12.27,0-19.41-7.19t-7.14-20.06q0-12.66,7.84-20.53a25.62,25.62,0,0,1,18.81-7.86q11.67,0,18.73,7t7.06,17.73A35.13,35.13,0,0,1,732,295.31Zm-37.87-9.42h26.35q-1.31-11.76-13-11.77Q696.75,274.12,694.14,285.89Z"/><path class="b" d="M774.07,276.33a13.12,13.12,0,0,0-7.36-2.21q-4.35,0-7.74,4a14.39,14.39,0,0,0-3.37,9.67V318.3H743.07V264.66H755.6v4.91q5.25-5.91,14-5.91,6.4,0,9.81,1.95Z"/><path class="b" d="M783.39,318.3V314l29.1-38.46h-28.6V264.66h46.88v4.41l-28,38.31h28.35V318.3Z"/></svg>