<svg xmlns="http://www.w3.org/2000/svg" viewBox="0 0 715 229.8" fill="#fff"><path d="M230.85 111.28c-6.55 5.54-15.33 5.62-17.79 5.62-3.24 0-13.64-.15-21.19-8.09a20.67 20.67 0 0 1-2.62-3.54l8.56-5.93c2.38 3.54 6.85 8.16 16.86 8.16a19.13 19.13 0 0 0 4-.38c1.15-.23 6.47-1.7 6.47-6.78a5.59 5.59 0 0 0-1-3.24c-1.85-2.46-6.78-3.15-9.48-3.77l-6.47-1.46a33.3 33.3 0 0 1-8.19-2.55 13.64 13.64 0 0 1-7.78-12.63 16.33 16.33 0 0 1 2.08-8c2.47-4.16 8.4-8.93 19.41-8.93a25.76 25.76 0 0 1 22 11L227.23 77c-1.7-2.7-5.55-8.09-14.1-8.09-.54 0-7.39-.08-9.63 4.16a4.91 4.91 0 0 0-.61 2.47 4.59 4.59 0 0 0 .69 2.46c1.31 2.23 4.32 2.93 9.32 4l5.62 1.23c5.17 1.15 10.87 2.69 14.49 6.93 1.54 1.7 3.15 4.16 3.15 9.17a14.55 14.55 0 0 1-5.31 11.95zM243.86 71v-9.33H253V71zm0 44.52V77H253v38.51zm67.71-.01V91.94c0-1.46-.31-7.47-6.47-7.47a8.1 8.1 0 0 0-6.86 3.93c-1.77 2.77-1.84 5.93-1.84 9v18.1h-9.17V94c0-.85-.08-1.7-.08-2.55a7.21 7.21 0 0 0-2.08-5.45 6.2 6.2 0 0 0-4.16-1.46 7.65 7.65 0 0 0-4.85 1.85c-3.77 3.23-3.85 8.62-3.85 12.94v16.17H263V77h9.24l.08 4.31a5.59 5.59 0 0 1 1.23-1.38 17 17 0 0 1 10.86-4.09 12 12 0 0 1 10.71 5.86 13.41 13.41 0 0 1 3.54-3.31 15.06 15.06 0 0 1 8.86-2.55c5.85 0 11.09 2.55 12.71 8.55a25.32 25.32 0 0 1 .54 6.78v24.34zm54.69-10.78a18.77 18.77 0 0 1-18 11.94 20.77 20.77 0 0 1-8.7-1.77c-4-1.78-11.32-7.17-11.32-18.8a23.16 23.16 0 0 1 1.69-8.62c1.62-3.86 6.55-11.64 18-11.64a21.14 21.14 0 0 1 8.48 1.78c4.16 1.77 11.32 6.93 11.4 18.48a23.64 23.64 0 0 1-1.55 8.63zm-18.49-20.57a10.34 10.34 0 0 0-5.24 1.47c-2 1.31-4.7 4.46-4.7 10.24a15.32 15.32 0 0 0 .77 5.24c.62 1.85 3.32 7.09 9.63 7.09 7 0 10.17-6.17 9.94-12.25s-3.62-11.79-10.4-11.79zm52.07 31.35V95.87a23.24 23.24 0 0 0-.39-5.93 6.16 6.16 0 0 0-6.39-5.08 7.3 7.3 0 0 0-4.85 1.77c-2.78 2.31-3.62 5.54-3.62 12.17v16.71h-9.32V77h9.32v4.54a17.31 17.31 0 0 1 1.69-2c3.62-3.39 8.86-3.7 10.17-3.7 5.7 0 9 2.93 10.24 4.7 2.47 3.55 2.24 8.4 2.24 12.33v22.64zm40.28-4.93c-1.39 4.78-3.39 12.94-7 15.87-2.39 1.93-4.85 2.31-7.86 2.31a21.44 21.44 0 0 1-5.46-.54v-8c3.69.46 5.77 0 7.16-1.15a5.65 5.65 0 0 0 1.62-2.78L414.63 77h9.93l8.63 28.73L440.43 77h9.47zM455.6 71v-9.33h9.17V71zm0 44.52V77h9.17v38.51zm76.03-.01l-14.49-25.57-8.85 10.17v15.4H498.2V61.13h10.09v25l21.79-25H542l-17.77 20.49 19 33.89zm39.37 0l-.23-3a13 13 0 0 1-3.54 2.16 18.05 18.05 0 0 1-7.78 1.77c-1.85 0-8.78-.23-12.32-5.93a10.9 10.9 0 0 1-1.7-6.17 11.21 11.21 0 0 1 5.24-9.62c3.16-2.16 6.16-2.62 9.7-3.32A70.58 70.58 0 0 0 571 88.78a7.23 7.23 0 0 0-.54-3.15c-.77-1.47-2.69-2.62-6.08-2.62s-5.78 1.08-6.78 2.39a5 5 0 0 0-1 3.38l-9.4-.53a11.62 11.62 0 0 1 4.16-8.86c2.39-2 6-3.55 12.71-3.55 6.32 0 10 1.31 12.4 3a8.93 8.93 0 0 1 2.78 3.08c1 2 1 4.7 1 6.85v20.49c0 2.93.15 3.78 1.69 6.24zm0-19.18a24.06 24.06 0 0 1-7.31 2.16c-2.08.38-4.32.46-6.24 1.62a4.53 4.53 0 0 0-2.24 3.85c0 2.31 1.7 4.54 6.32 4.54 5.08 0 8.09-2.62 8.93-4.39a7.09 7.09 0 0 0 .54-3.54zm-3.77-25h-6.93l3.85-10.25h11.4zm32.48 21.38A19.56 19.56 0 0 0 599 99v16.48h-8.94V77H599v5.47a12.09 12.09 0 0 1 2.31-3.16c3.08-3 8.09-3.16 9.17-3.16h.77v9.48c-1.91 0-9.25 0-11.54 7.08zm53.46 12.02a18.77 18.77 0 0 1-18 11.94 20.77 20.77 0 0 1-8.7-1.77c-4-1.78-11.32-7.17-11.32-18.8a23.16 23.16 0 0 1 1.69-8.62c1.62-3.86 6.55-11.64 18-11.64a21.13 21.13 0 0 1 8.47 1.78c4.16 1.77 11.32 6.93 11.4 18.48a23.64 23.64 0 0 1-1.54 8.63zm-18.49-20.57a10.34 10.34 0 0 0-5.24 1.47c-2 1.31-4.7 4.46-4.7 10.24a15.09 15.09 0 0 0 .78 5.24c.61 1.85 3.31 7.09 9.62 7.09 7 0 10.17-6.17 9.94-12.25s-3.62-11.79-10.4-11.79zm27.65 31.35V61.13h9.4v54.38zm40.67-4.93c-1.39 4.78-3.39 12.94-7 15.87-2.39 1.93-4.85 2.31-7.86 2.31a21.44 21.44 0 0 1-5.46-.54v-8c3.69.46 5.77 0 7.16-1.15a5.65 5.65 0 0 0 1.62-2.78L677.5 77h9.94l8.63 28.73L703.31 77h9.47zm-491.67 55.63c-3.28 2.78-7.68 2.82-8.92 2.82-1.62 0-6.83-.08-10.61-4.05a10.61 10.61 0 0 1-1.31-1.78l4.28-3c1.2 1.77 3.44 4.09 8.46 4.09a9.55 9.55 0 0 0 2-.19c.58-.12 3.24-.85 3.24-3.4a2.79 2.79 0 0 0-.5-1.62c-.92-1.24-3.39-1.58-4.74-1.89l-3.25-.73a16.53 16.53 0 0 1-4.13-1.28 6.83 6.83 0 0 1-3.89-6.33 8.08 8.08 0 0 1 1-4c1.23-2.08 4.21-4.48 9.72-4.48a12.91 12.91 0 0 1 11 5.52l-4.2 3.13a7.92 7.92 0 0 0-7.07-4c-.27 0-3.7 0-4.82 2.08a2.47 2.47 0 0 0-.31 1.23 2.32 2.32 0 0 0 .35 1.24c.65 1.12 2.16 1.47 4.67 2l2.82.61c2.58.58 5.44 1.35 7.25 3.48a6.19 6.19 0 0 1 1.58 4.59 7.28 7.28 0 0 1-2.62 5.96zm21.96 2.12v-4.16l14.89-18.53h-13.62v-4.55h20v4.32l-14.32 18.33h14.32v4.59zm58.5 0l-1.58-5.33H280l-1.58 5.32h-5.48l9.22-27.24h5.79l9.3 27.24zM285.11 146l-3.78 12.54h7.52zm49.36 22.33l-7.26-12.81-4.43 5.1v7.71h-5.06v-27.24h5.06v12.5l10.92-12.5h6l-8.92 10.26 9.53 17zm42.75 0L370 155.52l-4.44 5.1v7.71h-5v-27.24h5v12.5l10.92-12.5h6l-8.91 10.26 9.53 17zm47.12-3.2a12.21 12.21 0 0 1-4.63 3.13 13.94 13.94 0 0 1-4.71.74 11.48 11.48 0 0 1-9.33-4.21 14.65 14.65 0 0 1-3.67-10.04 16.83 16.83 0 0 1 .81-5.29 12.87 12.87 0 0 1 21.92-4.74 14.46 14.46 0 0 1 3.39 10 15.37 15.37 0 0 1-3.78 10.41zm-3-16.48a7.15 7.15 0 0 0-6.33-3.59 7.74 7.74 0 0 0-3.47.81c-1.93 1-4.32 3.59-4.32 8.69 0 1 0 6.06 3.86 8.56a7.33 7.33 0 0 0 4 1.16 7.45 7.45 0 0 0 3.12-.66c2-.92 4.64-3.24 4.75-8.37a12 12 0 0 0-1.58-6.6zm28.74 19.68v-27.24h5.13v22.61H466v4.63zm37.12 0v-27.24h5.14v22.61h10.8v4.63zm36.97 0v-27.24h19.37v4.55h-14.35v6.41h13.16v4.4h-13.16v7.29h15.32v4.59zm10.34-29.9h-3.43l2-4.63h5.55zm49.86 29.9v-2.31a10.22 10.22 0 0 1-7.48 3 12.17 12.17 0 0 1-8.72-3.44 14.59 14.59 0 0 1-4.1-10.58 16.09 16.09 0 0 1 3.21-9.84 12.68 12.68 0 0 1 10-4.75 13 13 0 0 1 4.48.82 12 12 0 0 1 7 7.21l-4.86 1.93c-.49-1.37-1.9-5.37-6.67-5.37a6.86 6.86 0 0 0-4.9 2c-1.31 1.35-2.7 3.67-2.7 7.88 0 1.12 0 5.21 3.13 7.83a6.81 6.81 0 0 0 4.59 1.54 6.32 6.32 0 0 0 6.13-3.86 8 8 0 0 0 .58-2.43h-6.79v-4.47h11.46v14.89zm26.98 0v-27.24h5v27.24zm49.78-5.55c-.89 2.74-4 6.25-10.69 6.25-3.21 0-6.41-.77-8.65-3.24a8 8 0 0 1-1.73-2.94c-.43-1.39-.43-2.66-.43-5.55v-16.21h5.13v16.75a8.65 8.65 0 0 0 .27 3c.51 1.62 2 3.24 5.6 3.24.66 0 4.4 0 5.52-3.09a9.58 9.58 0 0 0 .35-3.43v-16.47h5.09v15.7c0 3.13.04 4.44-.46 5.99zm43.87 5.55l.5-22.38-5.9 22.38H695L689.1 146l.51 22.38h-5v-27.29H692l5.32 20.22 5.25-20.22H710v27.24zM77 47.37A67.53 67.53 0 1 1 9.43 114.9 67.52 67.52 0 0 1 77 47.37m0-8.1a75.64 75.64 0 1 0 75.6 75.63A75.72 75.72 0 0 0 77 39.27z"/><path d="M142.61 97H67.78a3.9 3.9 0 1 1 0-7.79h74.83a3.9 3.9 0 1 1 0 7.79zM55.06 84.59a8.54 8.54 0 1 0 8.53 8.53 8.53 8.53 0 0 0-8.53-8.53m0-8.11a16.64 16.64 0 1 1-16.64 16.64 16.67 16.67 0 0 1 16.64-16.64zm29.07 65.59H13.71a3.45 3.45 0 0 1 0-6.9h70.42a3.45 3.45 0 0 1 0 6.9z"/><path d="M96.76 129.75a8.54 8.54 0 1 1-8.54 8.54 8.53 8.53 0 0 1 8.54-8.54m0-8.1a16.64 16.64 0 1 0 16.64 16.64 16.65 16.65 0 0 0-16.64-16.64z"/></svg>