<svg xmlns="http://www.w3.org/2000/svg" viewBox="0 0 715 229.8"><defs><style>.a{fill:#fff;}</style></defs><title>simonyi-logo</title><path class="a" d="M230.85,111.28c-6.55,5.54-15.33,5.62-17.79,5.62-3.24,0-13.64-.15-21.19-8.09a20.67,20.67,0,0,1-2.62-3.54l8.56-5.93c2.38,3.54,6.85,8.16,16.86,8.16a19.13,19.13,0,0,0,4-.38c1.15-.23,6.47-1.7,6.47-6.78a5.59,5.59,0,0,0-1-3.24c-1.85-2.46-6.78-3.15-9.48-3.77l-6.47-1.46A33.3,33.3,0,0,1,200,89.32a13.64,13.64,0,0,1-7.78-12.63,16.33,16.33,0,0,1,2.08-8c2.47-4.16,8.4-8.93,19.41-8.93a25.76,25.76,0,0,1,22,11L227.23,77c-1.7-2.7-5.55-8.09-14.1-8.09-.54,0-7.39-.08-9.63,4.16a4.91,4.91,0,0,0-.61,2.47,4.59,4.59,0,0,0,.69,2.46c1.31,2.23,4.32,2.93,9.32,4l5.62,1.23c5.17,1.15,10.87,2.69,14.49,6.93,1.54,1.7,3.15,4.16,3.15,9.17A14.55,14.55,0,0,1,230.85,111.28Z"/><path class="a" d="M243.86,71V61.67H253V71Zm0,44.52V77H253v38.51Z"/><path class="a" d="M311.57,115.51V91.94c0-1.46-.31-7.47-6.47-7.47a8.1,8.1,0,0,0-6.86,3.93c-1.77,2.77-1.84,5.93-1.84,9v18.1h-9.17V94c0-.85-.08-1.7-.08-2.55A7.21,7.21,0,0,0,285.07,86a6.2,6.2,0,0,0-4.16-1.46,7.65,7.65,0,0,0-4.85,1.85c-3.77,3.23-3.85,8.62-3.85,12.94v16.17H263V77h9.24l.08,4.31a5.59,5.59,0,0,1,1.23-1.38,17,17,0,0,1,10.86-4.09,12,12,0,0,1,10.71,5.86,13.41,13.41,0,0,1,3.54-3.31,15.06,15.06,0,0,1,8.86-2.55c5.85,0,11.09,2.55,12.71,8.55a25.32,25.32,0,0,1,.54,6.78v24.34Z"/><path class="a" d="M366.26,104.73a18.77,18.77,0,0,1-18,11.94,20.77,20.77,0,0,1-8.7-1.77c-4-1.78-11.32-7.17-11.32-18.8a23.16,23.16,0,0,1,1.69-8.62c1.62-3.86,6.55-11.64,18-11.64a21.14,21.14,0,0,1,8.48,1.78c4.16,1.77,11.32,6.93,11.4,18.48A23.64,23.64,0,0,1,366.26,104.73ZM347.77,84.16a10.34,10.34,0,0,0-5.24,1.47c-2,1.31-4.7,4.46-4.7,10.24a15.32,15.32,0,0,0,.77,5.24c.62,1.85,3.32,7.09,9.63,7.09,7,0,10.17-6.17,9.94-12.25S354.55,84.16,347.77,84.16Z"/><path class="a" d="M399.84,115.51V95.87a23.24,23.24,0,0,0-.39-5.93,6.16,6.16,0,0,0-6.39-5.08,7.3,7.3,0,0,0-4.85,1.77c-2.78,2.31-3.62,5.54-3.62,12.17v16.71h-9.32V77h9.32v4.54a17.31,17.31,0,0,1,1.69-2c3.62-3.39,8.86-3.7,10.17-3.7,5.7,0,9,2.93,10.24,4.7,2.47,3.55,2.24,8.4,2.24,12.33v22.64Z"/><path class="a" d="M440.12,110.58c-1.39,4.78-3.39,12.94-7,15.87-2.39,1.93-4.85,2.31-7.86,2.31a21.44,21.44,0,0,1-5.46-.54v-8c3.69.46,5.77,0,7.16-1.15a5.65,5.65,0,0,0,1.62-2.78L414.63,77h9.93l8.63,28.73L440.43,77h9.47Z"/><path class="a" d="M455.6,71V61.67h9.17V71Zm0,44.52V77h9.17v38.51Z"/><path class="a" d="M531.63,115.51,517.14,89.94l-8.85,10.17v15.4H498.2V61.13h10.09v25l21.79-25H542L524.23,81.62l19,33.89Z"/><path class="a" d="M571,115.51l-.23-3a13,13,0,0,1-3.54,2.16,18.05,18.05,0,0,1-7.78,1.77c-1.85,0-8.78-.23-12.32-5.93a10.9,10.9,0,0,1-1.7-6.17,11.21,11.21,0,0,1,5.24-9.62c3.16-2.16,6.16-2.62,9.7-3.32A70.58,70.58,0,0,0,571,88.78a7.23,7.23,0,0,0-.54-3.15c-.77-1.47-2.69-2.62-6.08-2.62s-5.78,1.08-6.78,2.39a5,5,0,0,0-1,3.38l-9.4-.53a11.62,11.62,0,0,1,4.16-8.86c2.39-2,6-3.55,12.71-3.55,6.32,0,10,1.31,12.4,3a8.93,8.93,0,0,1,2.78,3.08c1,2,1,4.7,1,6.85v20.49c0,2.93.15,3.78,1.69,6.24Zm0-19.18a24.06,24.06,0,0,1-7.31,2.16c-2.08.38-4.32.46-6.24,1.62a4.53,4.53,0,0,0-2.24,3.85c0,2.31,1.7,4.54,6.32,4.54,5.08,0,8.09-2.62,8.93-4.39a7.09,7.09,0,0,0,.54-3.54Zm-3.77-25h-6.93l3.85-10.25h11.4Z"/><path class="a" d="M599.71,92.71A19.56,19.56,0,0,0,599,99v16.48h-8.94V77H599v5.47a12.09,12.09,0,0,1,2.31-3.16c3.08-3,8.09-3.16,9.17-3.16h.77v9.48C609.34,85.63,602,85.63,599.71,92.71Z"/><path class="a" d="M653.17,104.73a18.77,18.77,0,0,1-18,11.94,20.77,20.77,0,0,1-8.7-1.77c-4-1.78-11.32-7.17-11.32-18.8a23.16,23.16,0,0,1,1.69-8.62c1.62-3.86,6.55-11.64,18-11.64a21.13,21.13,0,0,1,8.47,1.78c4.16,1.77,11.32,6.93,11.4,18.48A23.64,23.64,0,0,1,653.17,104.73ZM634.68,84.16a10.34,10.34,0,0,0-5.24,1.47c-2,1.31-4.7,4.46-4.7,10.24a15.09,15.09,0,0,0,.78,5.24c.61,1.85,3.31,7.09,9.62,7.09,7,0,10.17-6.17,9.94-12.25S641.46,84.16,634.68,84.16Z"/><path class="a" d="M662.33,115.51V61.13h9.4v54.38Z"/><path class="a" d="M703,110.58c-1.39,4.78-3.39,12.94-7,15.87-2.39,1.93-4.85,2.31-7.86,2.31a21.44,21.44,0,0,1-5.46-.54v-8c3.69.46,5.77,0,7.16-1.15a5.65,5.65,0,0,0,1.62-2.78L677.5,77h9.94l8.63,28.73L703.31,77h9.47Z"/><path class="a" d="M211.33,166.21c-3.28,2.78-7.68,2.82-8.92,2.82-1.62,0-6.83-.08-10.61-4.05a10.61,10.61,0,0,1-1.31-1.78l4.28-3c1.2,1.77,3.44,4.09,8.46,4.09a9.55,9.55,0,0,0,2-.19c.58-.12,3.24-.85,3.24-3.4a2.79,2.79,0,0,0-.5-1.62c-.92-1.24-3.39-1.58-4.74-1.89l-3.25-.73a16.53,16.53,0,0,1-4.13-1.28,6.83,6.83,0,0,1-3.89-6.33,8.08,8.08,0,0,1,1-4c1.23-2.08,4.21-4.48,9.72-4.48a12.91,12.91,0,0,1,11,5.52l-4.2,3.13a7.92,7.92,0,0,0-7.07-4c-.27,0-3.7,0-4.82,2.08a2.47,2.47,0,0,0-.31,1.23,2.32,2.32,0,0,0,.35,1.24c.65,1.12,2.16,1.47,4.67,2l2.82.61c2.58.58,5.44,1.35,7.25,3.48a6.19,6.19,0,0,1,1.58,4.59A7.28,7.28,0,0,1,211.33,166.21Z"/><path class="a" d="M233.29,168.33v-4.16l14.89-18.53H234.56v-4.55h20v4.32l-14.32,18.33h14.32v4.59Z"/><path class="a" d="M291.79,168.33,290.21,163H280l-1.58,5.32h-5.48l9.22-27.24h5.79l9.3,27.24ZM285.11,146l-3.78,12.54h7.52Z"/><path class="a" d="M334.47,168.33l-7.26-12.81-4.43,5.1v7.71h-5.06V141.09h5.06v12.5l10.92-12.5h6l-8.92,10.26,9.53,17Z"/><path class="a" d="M377.22,168.33,370,155.52l-4.44,5.1v7.71h-5V141.09h5v12.5l10.92-12.5h6l-8.91,10.26,9.53,17Z"/><path class="a" d="M424.34,165.13a12.21,12.21,0,0,1-4.63,3.13A13.94,13.94,0,0,1,415,169a11.48,11.48,0,0,1-9.33-4.21A14.65,14.65,0,0,1,402,154.75a16.83,16.83,0,0,1,.81-5.29,12.87,12.87,0,0,1,21.92-4.74,14.46,14.46,0,0,1,3.39,10A15.37,15.37,0,0,1,424.34,165.13Zm-3-16.48a7.15,7.15,0,0,0-6.33-3.59,7.74,7.74,0,0,0-3.47.81c-1.93,1-4.32,3.59-4.32,8.69,0,1,0,6.06,3.86,8.56a7.33,7.33,0,0,0,4,1.16,7.45,7.45,0,0,0,3.12-.66c2-.92,4.64-3.24,4.75-8.37A12,12,0,0,0,421.37,148.65Z"/><path class="a" d="M450.08,168.33V141.09h5.13V163.7H466v4.63Z"/><path class="a" d="M487.2,168.33V141.09h5.14V163.7h10.8v4.63Z"/><path class="a" d="M524.17,168.33V141.09h19.37v4.55H529.19v6.41h13.16v4.4H529.19v7.29h15.32v4.59Zm10.34-29.9h-3.43l2-4.63h5.55Z"/><path class="a" d="M584.37,168.33l0-2.31a10.22,10.22,0,0,1-7.48,3,12.17,12.17,0,0,1-8.72-3.44A14.59,14.59,0,0,1,564.07,155a16.09,16.09,0,0,1,3.21-9.84,12.68,12.68,0,0,1,10-4.75,13,13,0,0,1,4.48.82,12,12,0,0,1,7,7.21l-4.86,1.93C583.41,149,582,145,577.23,145a6.86,6.86,0,0,0-4.9,2c-1.31,1.35-2.7,3.67-2.7,7.88,0,1.12,0,5.21,3.13,7.83a6.81,6.81,0,0,0,4.59,1.54,6.32,6.32,0,0,0,6.13-3.86,8,8,0,0,0,.58-2.43h-6.79v-4.47h11.46v14.89Z"/><path class="a" d="M611.35,168.33V141.09h5v27.24Z"/><path class="a" d="M661.13,162.78c-.89,2.74-4,6.25-10.69,6.25-3.21,0-6.41-.77-8.65-3.24a8,8,0,0,1-1.73-2.94c-.43-1.39-.43-2.66-.43-5.55V141.09h5.13v16.75a8.65,8.65,0,0,0,.27,3c.51,1.62,2,3.24,5.6,3.24.66,0,4.4,0,5.52-3.09a9.58,9.58,0,0,0,.35-3.43V141.09h5.09v15.7C661.59,159.92,661.63,161.23,661.13,162.78Z"/><path class="a" d="M705,168.33l.5-22.38-5.9,22.38H695L689.1,146l.51,22.38h-5V141.09H692l5.32,20.22,5.25-20.22H710v27.24Z"/><path class="a" d="M77,47.37A67.53,67.53,0,1,1,9.43,114.9,67.52,67.52,0,0,1,77,47.37m0-8.1A75.64,75.64,0,1,0,152.6,114.9,75.72,75.72,0,0,0,77,39.27Z"/><path class="a" d="M142.61,97H67.78a3.9,3.9,0,1,1,0-7.79h74.83a3.9,3.9,0,1,1,0,7.79ZM55.06,84.59a8.54,8.54,0,1,0,8.53,8.53,8.53,8.53,0,0,0-8.53-8.53m0-8.11A16.64,16.64,0,1,1,38.42,93.12,16.67,16.67,0,0,1,55.06,76.48Z"/><path class="a" d="M84.13,142.07H13.71a3.45,3.45,0,0,1,0-6.9H84.13a3.45,3.45,0,0,1,0,6.9Z"/><path class="a" d="M96.76,129.75a8.54,8.54,0,1,1-8.54,8.54,8.53,8.53,0,0,1,8.54-8.54m0-8.1a16.64,16.64,0,1,0,16.64,16.64,16.65,16.65,0,0,0-16.64-16.64Z"/></svg>