<svg xmlns="http://www.w3.org/2000/svg" viewBox="0 0 350 350"><defs><style>.a{fill:#fff;}</style></defs><title>vik</title><path class="a" d="M174.57,100.76c4.38-6.71,8.64-12.91,12.56-18.27a96.91,96.91,0,0,0-12.35-.82,95.46,95.46,0,0,0-53.35,174.62c2.18-6.56,4.45-12.82,6.72-18.71a76.35,76.35,0,0,1,46.42-136.82Z"/><path class="a" d="M174.78,253.48a76.33,76.33,0,0,1-13.27-1.17c-4.53,6.94-8.23,12.86-10.87,17.18a95.45,95.45,0,0,0,92.69-158.76q-7.19,7-13.43,13.58a76.33,76.33,0,0,1-55.12,129.17Z"/><path class="a" d="M217,173.06s-8.53-5.69-26-11c0,0,32.09-43.87,81.24-83.67,0,0-44-10.16-66.61-10.16-11.78,8.94-49.56,67.43-67,106.42,0,0,14.62,6.91,19.09,11.38a410.61,410.61,0,0,0-34.93,82l-12.6-8.93,8.53,43.46,39.2-24-16-4.07S178.23,211.85,217,173.06Z"/><path class="a" d="M135.44,322a7.1,7.1,0,0,0-3.85,5.07,5.87,5.87,0,0,0,.7,4.53,7.43,7.43,0,0,0,4,3.05l0,.08A7.67,7.67,0,0,0,132.1,336a5.5,5.5,0,0,0-2.26,3.35,5.24,5.24,0,0,0,1.31,5q2,2.13,6.31,3.13l9.44,2.16,5.95-25.95-10-2.28A11,11,0,0,0,135.44,322Zm6.61,22.1-2.19-.5c-2.85-.66-4.05-1.94-3.62-3.84a3.09,3.09,0,0,1,1.6-2.18,4.34,4.34,0,0,1,3-.22l2.57.58Zm2.4-10.5-3.2-.73a5.18,5.18,0,0,1-3-1.61,3.08,3.08,0,0,1-.57-2.71,3.23,3.23,0,0,1,1.74-2.3,5,5,0,0,1,3.39-.21l3.17.72Z"/><path class="a" d="M125.14,316.39,119,329.78c-.82,1.8-1.71,3.93-2.65,6.39l-.15-.07a33.46,33.46,0,0,0,.78-3.73l1.65-18.93-4.46-2L101,325.29a28.29,28.29,0,0,0-2.22,2.86l-.14-.06q1.5-2.74,2.57-5.09l6.61-14.5-5.39-2.45-11,24.22,7.78,3.55,11.48-12.07a36.66,36.66,0,0,0,2.56-3.06l.1.05a22.12,22.12,0,0,0-.72,3.86L111,339.21l8,3.64,11-24.22Z"/><polygon class="a" points="85.49 293.72 82.69 297.69 90.83 303.44 87.32 308.42 80.21 303.4 77.4 307.37 84.52 312.39 81.1 317.23 73.46 311.83 70.64 315.82 83.19 324.67 98.53 302.92 85.49 293.72"/><path class="a" d="M38.17,283l4.11,4.74,17.56-7.91a15.72,15.72,0,0,0,2.44-1.36l.07.09a13.07,13.07,0,0,0-1.65,2.14L50.33,297.06l4.23,4.88,14.19-24.28-4.45-5.13Z"/><polygon class="a" points="39.13 275.7 53.52 266.03 54.76 267.88 58.61 265.28 52.78 256.61 48.93 259.2 50.17 261.05 35.78 270.73 34.54 268.88 30.69 271.47 36.52 280.14 40.38 277.55 39.13 275.7"/><polygon class="a" points="43.7 240.06 39.41 242.35 44.04 251.05 24.84 261.29 27.66 266.57 51.16 254.05 43.7 240.06"/><path class="a" d="M37.15,222.83l-.26.09-1.29-6-6.19-.6-2-9.26,5.39-3.09-1.36-6.39L7.41,212.36l1.49,7,27.42,3.82-3.72,1.41,3.5,9.22-20.34,7.71,2.12,5.61,24.89-9.44ZM15.22,215a10.42,10.42,0,0,0-2.37,0l0-.14a11.46,11.46,0,0,0,2.25-.94l8.15-4.66L24.65,216Z"/><path class="a" d="M31.15,190.23l-14.72.24q-3,0-6.9.35v-.17a34,34,0,0,0,3.7-.89L31,183.12l-.08-4.9-18.2-5.95a28.8,28.8,0,0,0-3.54-.77v-.15c2.08.11,4,.16,5.7.13l15.93-.26-.1-5.92-26.61.43.13,8.56,15.83,5.18a39.39,39.39,0,0,0,3.86,1v.11a21.91,21.91,0,0,0-3.79,1L4.47,187.28l.15,8.78,26.62-.43Z"/><path class="a" d="M18.76,159.62A13.3,13.3,0,0,0,29,158.1a12.37,12.37,0,0,0,5.57-8.35,12.53,12.53,0,0,0-1.79-10.1A14.14,14.14,0,0,0,23.62,134a13.76,13.76,0,0,0-10.35,1.41,12.1,12.1,0,0,0-5.56,8.25,12.65,12.65,0,0,0,1.81,10.28A14.3,14.3,0,0,0,18.76,159.62Zm-6-14.74A5.75,5.75,0,0,1,16,140.63a10.38,10.38,0,0,1,6.66-.39,9.57,9.57,0,0,1,5.7,3.06,6,6,0,0,1,1.17,5.28,5.93,5.93,0,0,1-3.25,4.28,9.7,9.7,0,0,1-6.51.52A9.83,9.83,0,0,1,14,150.27,6,6,0,0,1,12.73,144.88Z"/><path class="a" d="M16.84,126a7.26,7.26,0,0,0,3,2.09,6.91,6.91,0,0,0,4.77.22,11.53,11.53,0,0,0,4.65-3.17c.61-.64,1.19-1.23,1.75-1.77a12.62,12.62,0,0,1,1.6-1.33,4.47,4.47,0,0,1,1.5-.72,2.29,2.29,0,0,1,1.46.09,2.15,2.15,0,0,1,.89.65,2.47,2.47,0,0,1,.49,1.1,4.51,4.51,0,0,1,0,1.52,8.28,8.28,0,0,1-.53,1.91,11.39,11.39,0,0,1-5.2,5.84l5.53,2.17a12.39,12.39,0,0,0,2.29-2.79A22.9,22.9,0,0,0,41,128,20,20,0,0,0,42,124.09a9.76,9.76,0,0,0,0-3.62,6.78,6.78,0,0,0-1.45-3,7.47,7.47,0,0,0-3.17-2.15,7.58,7.58,0,0,0-2.81-.59,6.83,6.83,0,0,0-2.52.51,10.49,10.49,0,0,0-2.38,1.41,23,23,0,0,0-2.37,2.16c-.58.6-1.13,1.14-1.64,1.61a11.52,11.52,0,0,1-1.44,1.13,3.91,3.91,0,0,1-1.3.56,2,2,0,0,1-1.24-.1,2,2,0,0,1-.91-.7,2.54,2.54,0,0,1-.46-1.14,4.76,4.76,0,0,1,0-1.51,7.89,7.89,0,0,1,.5-1.8,11.28,11.28,0,0,1,.67-1.42,11.54,11.54,0,0,1,.93-1.42,10.74,10.74,0,0,1,1.13-1.3,8.5,8.5,0,0,1,1.3-1.06l-5.17-2a14.83,14.83,0,0,0-1.8,2.47,24.43,24.43,0,0,0-1.58,3.34,17.36,17.36,0,0,0-1,3.9,10.37,10.37,0,0,0,.11,3.62A7.11,7.11,0,0,0,16.84,126Z"/><path class="a" d="M48.19,110.36,35.75,102.5q-2.52-1.59-6-3.48l.09-.14a34,34,0,0,0,3.58,1.27L52,104.35l2.62-4.14-12-14.94a28.21,28.21,0,0,0-2.54-2.59l.08-.13c1.68,1.24,3.24,2.32,4.7,3.23l13.47,8.51,3.16-5L39,75.07,34.43,82.3l10.41,13a38.2,38.2,0,0,0,2.68,3l-.06.09a22.53,22.53,0,0,0-3.72-1.23L27.49,93.29l-4.69,7.42,22.51,14.22Z"/><polygon class="a" points="49.45 59.96 49 51.63 45.45 55.45 46.57 63.07 49.45 59.96"/><polygon class="a" points="65 85.97 75.86 74.26 72.3 70.95 65.52 78.26 61.05 74.12 66.97 67.74 63.41 64.43 57.48 70.81 53.14 66.79 59.51 59.93 55.93 56.61 45.49 67.86 65 85.97"/><path class="a" d="M82.88,68.28l-6.38-8,1.26-1a2.21,2.21,0,0,1,.95-.46,3.18,3.18,0,0,1,1.12,0,7.14,7.14,0,0,1,1.33.27c.48.15,1,.32,1.57.53l7.52,2.75,5.37-4.31-8.85-3c-.46-.15-1-.3-1.46-.43a13.88,13.88,0,0,0-1.53-.32,8,8,0,0,0-1.45-.08,3.73,3.73,0,0,0-1.27.25l0-.06A9.89,9.89,0,0,0,82.26,52a7.87,7.87,0,0,0,.44-2.45,7.21,7.21,0,0,0-.39-2.42A7.57,7.57,0,0,0,81,44.9Q76.5,39.26,69,45.32l-7.41,6L78.2,72ZM75.69,55.17l-2,1.63L69,51l2.12-1.69c2.17-1.75,4-1.71,5.44.1a3.73,3.73,0,0,1,.83,2.93A4.29,4.29,0,0,1,75.69,55.17Z"/><path class="a" d="M101.7,54.72l-7-12.86c-.92-1.69-1.65-2.93-2.19-3.71l.07,0a24.86,24.86,0,0,0,2.23,1.31l17.62,9.46L117.77,46l-12.7-23.4-5,2.7,7,12.94A28,28,0,0,0,109,41.38l-.07,0c-.7-.44-1.43-.86-2.21-1.27l-17-9.21L84,34l12.7,23.4Z"/><path class="a" d="M123.06,40.5a12.4,12.4,0,0,0,10,.76,12.5,12.5,0,0,0,7.93-6.5A14.13,14.13,0,0,0,141.46,24a13.76,13.76,0,0,0-6.3-8.34,12.08,12.08,0,0,0-9.91-.8,12.64,12.64,0,0,0-8.08,6.61,14.31,14.31,0,0,0-.44,10.84A13.37,13.37,0,0,0,123.06,40.5Zm-.51-16.9a6,6,0,0,1,4.08-3.76,5.75,5.75,0,0,1,5.29.75,10.34,10.34,0,0,1,3.61,5.62,9.6,9.6,0,0,1,.12,6.47,6.4,6.4,0,0,1-9.35,2.87,9.66,9.66,0,0,1-3.64-5.42A9.9,9.9,0,0,1,122.55,23.6Z"/><path class="a" d="M118.08,14.22a2.89,2.89,0,0,0,2.19.08A3,3,0,0,0,122,13a2.34,2.34,0,0,0,.21-2,2.37,2.37,0,0,0-1.3-1.51,2.93,2.93,0,0,0-2.17-.07A3.06,3.06,0,0,0,117,10.74a2.32,2.32,0,0,0-.23,2A2.35,2.35,0,0,0,118.08,14.22Z"/><path class="a" d="M126.22,11.68a2.91,2.91,0,0,0,2.16.08,3,3,0,0,0,1.75-1.29,2.35,2.35,0,0,0,.22-2A2.3,2.3,0,0,0,129,7a2.93,2.93,0,0,0-2.17-.07,3,3,0,0,0-1.74,1.28,2.4,2.4,0,0,0-.21,2A2.34,2.34,0,0,0,126.22,11.68Z"/><path class="a" d="M154.62,35.77,153,22.84h.09a10.87,10.87,0,0,0,.89,1.37l9.17,10.48,6.93-.89v.46l10.45-.17-.07-4.64-2.23,0-.28-17.34,2.23,0-.08-4.64-10.45.17.08,4.64,2.22,0,.29,17.33-2.23,0,.05,3.47L158.85,21.19l7.59-13.77-7.09.9-5.88,12c-.26.68-.44,1.21-.55,1.57h-.09l-1.6-12.48-5.95.76,3.39,26.4Z"/><polygon class="a" points="216.2 34.29 206.44 32.25 207.69 26.29 216.21 28.07 217.2 23.31 208.68 21.53 209.89 15.73 219.05 17.64 220.05 12.87 205.02 9.73 199.58 35.79 215.21 39.05 216.2 34.29"/><polygon class="a" points="220.74 4.36 215.64 3.3 209.69 8.18 213.83 9.05 220.74 4.36"/><path class="a" d="M217.75,38.71a13.08,13.08,0,0,0,2.85,2.21,23.25,23.25,0,0,0,3.8,1.75,19.79,19.79,0,0,0,4,1,9.87,9.87,0,0,0,3.62-.14A6.83,6.83,0,0,0,235,42,7.57,7.57,0,0,0,237,38.75a7.47,7.47,0,0,0,.51-2.82,6.63,6.63,0,0,0-.59-2.51,9.69,9.69,0,0,0-1.48-2.33,23.63,23.63,0,0,0-2.22-2.31c-.62-.56-1.18-1.09-1.66-1.59a10.44,10.44,0,0,1-1.17-1.4,4,4,0,0,1-.6-1.29,2,2,0,0,1,.07-1.24,2,2,0,0,1,.67-.94,2.79,2.79,0,0,1,1.12-.49,4.73,4.73,0,0,1,1.52,0,8.48,8.48,0,0,1,1.81.44,12.54,12.54,0,0,1,1.44.64,13,13,0,0,1,1.45.88,11.59,11.59,0,0,1,1.33,1.1,9.11,9.11,0,0,1,1.09,1.26l1.88-5.23a15,15,0,0,0-2.53-1.72,24,24,0,0,0-3.39-1.48,17.24,17.24,0,0,0-3.92-.92,10.28,10.28,0,0,0-3.62.21,7.07,7.07,0,0,0-3,1.55,7.17,7.17,0,0,0-2,3.08,6.91,6.91,0,0,0-.09,4.78A11.66,11.66,0,0,0,227,30.94c.66.59,1.26,1.15,1.82,1.69a15.18,15.18,0,0,1,1.38,1.56,4.74,4.74,0,0,1,.76,1.48,2.28,2.28,0,0,1,0,1.46,2.06,2.06,0,0,1-.62.91,2.48,2.48,0,0,1-1.08.52,4.69,4.69,0,0,1-1.52.06,8.1,8.1,0,0,1-1.93-.48,11,11,0,0,1-3.37-1.92,11.43,11.43,0,0,1-2.62-3.1Z"/><polygon class="a" points="260.8 55.19 258.91 54.01 268.12 39.32 270.01 40.5 272.48 36.57 263.62 31.02 261.16 34.95 263.05 36.13 253.83 50.82 251.94 49.64 249.48 53.57 258.33 59.12 260.8 55.19"/><path class="a" d="M265.15,64l9.38-11.22q1.86-2.22,2.65-3.4l.06.05a22.93,22.93,0,0,0-.39,2.55l-2.32,19.87,4.64,3.88,17.08-20.41-4.34-3.64L282.46,63a29.64,29.64,0,0,0-2.23,2.9l-.06,0c.15-.82.27-1.66.37-2.53l2.3-19.21-5-4.14L260.8,60.36Z"/><polygon class="a" points="286.23 83.92 294.05 77.16 299.7 83.69 303.37 80.51 297.73 73.98 302.67 69.7 308.81 76.81 312.51 73.61 302.44 61.98 282.31 79.39 286.23 83.92"/><path class="a" d="M298.21,93.36a12.4,12.4,0,0,0,1.75,9.88,12.54,12.54,0,0,0,8.28,6.06,14.09,14.09,0,0,0,10.52-2.24,13.77,13.77,0,0,0,6.51-8.18,12.1,12.1,0,0,0-1.69-9.79,12.66,12.66,0,0,0-8.42-6.18,14.37,14.37,0,0,0-10.61,2.27A13.4,13.4,0,0,0,298.21,93.36Zm9.94-3a9.87,9.87,0,0,1,6.3-1.73,6.06,6.06,0,0,1,4.66,3A5.77,5.77,0,0,1,319.7,97a10.43,10.43,0,0,1-4.55,4.9,9.57,9.57,0,0,1-6.23,1.72,6,6,0,0,1-4.5-3,5.93,5.93,0,0,1-.61-5.34A9.7,9.7,0,0,1,308.15,90.38Z"/><path class="a" d="M310.63,122.63l9.46-3.78.6,1.5a2.21,2.21,0,0,1,.16,1,3.37,3.37,0,0,1-.28,1.1,8.43,8.43,0,0,1-.65,1.19c-.27.41-.6.86-1,1.34l-4.83,6.39,2.56,6.39,5.44-7.59c.28-.39.56-.82.84-1.27a14,14,0,0,0,.75-1.36,9,9,0,0,0,.5-1.36,3.93,3.93,0,0,0,.14-1.3l.06,0a9.52,9.52,0,0,0,1.92,1.89,7.75,7.75,0,0,0,2.21,1.14,7.05,7.05,0,0,0,2.42.33,7.4,7.4,0,0,0,2.55-.55q6.72-2.69,3.13-11.69l-3.53-8.82-24.72,9.88Zm20.54-8.21,1,2.52c1,2.58.47,4.31-1.69,5.17a3.73,3.73,0,0,1-3.05-.06,4.31,4.31,0,0,1-2.18-2.47l-1-2.41Z"/><path class="a" d="M318.16,144.13l14.49-2.62q2.93-.52,6.75-1.46l0,.16a35.74,35.74,0,0,0-3.5,1.48l-16.5,9.44.87,4.82,18.92,2.92a28.55,28.55,0,0,0,3.62.19l0,.15c-2.07.22-3.95.49-5.64.79l-15.68,2.83,1,5.83,26.2-4.73-1.52-8.42L330.81,153a37.12,37.12,0,0,0-4-.35l0-.11a23.26,23.26,0,0,0,3.58-1.61L345,142.72l-1.56-8.64-26.2,4.73Z"/><path class="a" d="M322.51,170.42l-.17,6.49,5.88,2L328,188.4l-6,1.74-.17,6.54,26.86-8.78.18-7.11ZM344,184.14a11.61,11.61,0,0,0-2.4.38l-9,2.63.18-6.81,8.94,3.12A9.91,9.91,0,0,0,344,184Z"/><polygon class="a" points="341.66 207.71 320.29 203.72 319.19 209.63 340.56 213.62 339.16 221.08 343.96 221.98 347.85 201.17 343.05 200.28 341.66 207.71"/><polygon class="a" points="337.8 225.89 321.21 220.83 321.86 218.7 317.42 217.35 314.37 227.34 318.81 228.7 319.46 226.57 336.05 231.63 335.4 233.76 339.83 235.11 342.88 225.12 338.44 223.76 337.8 225.89"/><path class="a" d="M311.19,235.58l11.92,5.26,0,.09a12.43,12.43,0,0,0-1.63,0l-13.71,2.42-2.8,6.32-3,4.62,3.91,4.83-5.22,7.9-6-1.69-3.6,5.46,27.43,6.76,3.92-5.93L306.26,250l15.22-3.25,7.86,13.62,2.89-6.53L325,242.61c-.44-.57-.8-1-1.05-1.28l0-.08,11.52,5.09,2.42-5.49-24.35-10.76Zm3.67,34.58a11,11,0,0,0,1.68,1.67l-.08.12a11.47,11.47,0,0,0-2.24-.95l-9-2.54,3.75-5.69Z"/><polygon class="a" points="305.76 286.63 292.6 275.33 294.05 273.64 290.53 270.62 283.72 278.55 287.24 281.57 288.69 279.88 301.85 291.18 300.4 292.87 303.92 295.89 310.73 287.96 307.21 284.94 305.76 286.63"/><path class="a" d="M262.7,297.27l7.48,10.67-.08.06a11,11,0,0,0-1.42-.8l-13-5-5.85,4.09-5.16,2.44.83,6.15-8.56,4-4.24-4.55-5.91,2.79,19.92,20,6.43-3-2.5-27.23,15.08,5.22-.32,15.73,5.85-4.1-.34-13.31c-.09-.72-.17-1.27-.25-1.64l.08-.05L278,319.08l4.91-3.44-15.26-21.81ZM248,331.33a11.68,11.68,0,0,0-1.42-2l-6.4-6.87,6.16-2.91,1.23,9.4a9.73,9.73,0,0,0,.57,2.29Z"/><path class="a" d="M218.74,319.24l2.72,9.83-1.56.43a2.35,2.35,0,0,1-1.05.05,3.64,3.64,0,0,1-1.06-.4,7.81,7.81,0,0,1-1.11-.78q-.57-.48-1.23-1.11l-5.81-5.5L203,323.6l6.95,6.24c.35.33.74.65,1.16,1a11.77,11.77,0,0,0,1.28.89,7.8,7.8,0,0,0,1.29.65,4,4,0,0,0,1.28.28v.07a9.66,9.66,0,0,0-2.08,1.69,7.54,7.54,0,0,0-1.38,2.08,7.38,7.38,0,0,0-.6,2.37,7.55,7.55,0,0,0,.28,2.59q1.92,7,11.26,4.4l9.17-2.53-7.1-25.66ZM222,341.29q-4,1.13-5-2.25a3.73,3.73,0,0,1,.4-3,4.26,4.26,0,0,1,2.69-1.9l2.51-.7,2,7.14Z"/><circle class="a" cx="178.28" cy="339.25" r="7.16"/></svg>