<svg xmlns="http://www.w3.org/2000/svg" viewBox="0 0 350 350" fill="#fff"><path d="M174.57 100.76a423.94 423.94 0 0 1 12.56-18.27 96.91 96.91 0 0 0-12.35-.82 95.46 95.46 0 0 0-53.35 174.62 423.2 423.2 0 0 1 6.72-18.71 76.35 76.35 0 0 1 46.42-136.82zm.21 152.72a76.33 76.33 0 0 1-13.27-1.17 691.94 691.94 0 0 0-10.87 17.18 95.45 95.45 0 0 0 92.69-158.76q-7.19 7-13.43 13.58a76.33 76.33 0 0 1-55.12 129.17z"/><path d="M217 173.06s-8.53-5.69-26-11c0 0 32.09-43.87 81.24-83.67 0 0-44-10.16-66.61-10.16-11.78 8.94-49.56 67.43-67 106.42 0 0 14.62 6.91 19.09 11.38a410.61 410.61 0 0 0-34.93 82l-12.6-8.93 8.53 43.46 39.2-24-16-4.07s36.31-62.64 75.08-101.43zM135.44 322a7.1 7.1 0 0 0-3.85 5.07 5.87 5.87 0 0 0 .7 4.53 7.43 7.43 0 0 0 4 3.05v.08a7.67 7.67 0 0 0-4.19 1.27 5.5 5.5 0 0 0-2.26 3.35 5.24 5.24 0 0 0 1.31 5q2 2.13 6.31 3.13l9.44 2.16 5.95-25.95-10-2.28a11 11 0 0 0-7.41.59zm6.61 22.1l-2.19-.5c-2.85-.66-4.05-1.94-3.62-3.84a3.09 3.09 0 0 1 1.6-2.18 4.34 4.34 0 0 1 3-.22l2.57.58zm2.4-10.5l-3.2-.73a5.18 5.18 0 0 1-3-1.61 3.08 3.08 0 0 1-.57-2.71 3.23 3.23 0 0 1 1.74-2.3 5 5 0 0 1 3.39-.21l3.17.72zm-19.31-17.21L119 329.78a111.8 111.8 0 0 0-2.65 6.39l-.15-.07a33.46 33.46 0 0 0 .78-3.73l1.65-18.93-4.46-2L101 325.29a28.29 28.29 0 0 0-2.22 2.86l-.14-.06q1.5-2.74 2.57-5.09l6.61-14.5-5.39-2.45-11 24.22 7.78 3.55 11.48-12.07a36.66 36.66 0 0 0 2.56-3.06l.1.05a22.12 22.12 0 0 0-.72 3.86L111 339.21l8 3.64 11-24.22zm-39.65-22.67l-2.8 3.97 8.14 5.75-3.51 4.98-7.11-5.02-2.81 3.97 7.12 5.02-3.42 4.84-7.64-5.4-2.82 3.99 12.55 8.85 15.34-21.75-13.04-9.2zM38.17 283l4.11 4.74 17.56-7.91a15.72 15.72 0 0 0 2.44-1.36l.07.09a13.07 13.07 0 0 0-1.65 2.14l-10.37 16.36 4.23 4.88 14.19-24.28-4.45-5.13zm.96-7.3l14.39-9.67 1.24 1.85 3.85-2.6-5.83-8.67-3.85 2.59 1.24 1.85-14.39 9.68-1.24-1.85-3.85 2.59 5.83 8.67 3.86-2.59-1.25-1.85zm4.57-35.64l-4.29 2.29 4.63 8.7-19.2 10.24 2.82 5.28 23.5-12.52-7.46-13.99zm-6.55-17.23l-.26.09-1.29-6-6.19-.6-2-9.26 5.39-3.09-1.36-6.39-24.03 14.78 1.49 7 27.42 3.82-3.72 1.41 3.5 9.22-20.34 7.71 2.12 5.61 24.89-9.44zM15.22 215a10.42 10.42 0 0 0-2.37 0v-.14a11.46 11.46 0 0 0 2.25-.94l8.15-4.66 1.4 6.74zm15.93-24.77l-14.72.24q-3 0-6.9.35v-.17a34 34 0 0 0 3.7-.89L31 183.12l-.08-4.9-18.2-5.95a28.8 28.8 0 0 0-3.54-.77v-.15c2.08.11 4 .16 5.7.13l15.93-.26-.1-5.92-26.61.43.13 8.56 15.83 5.18a39.39 39.39 0 0 0 3.86 1v.11a21.91 21.91 0 0 0-3.79 1l-15.66 5.7.15 8.78 26.62-.43zm-12.39-30.61A13.3 13.3 0 0 0 29 158.1a12.37 12.37 0 0 0 5.57-8.35 12.53 12.53 0 0 0-1.79-10.1 14.14 14.14 0 0 0-9.16-5.65 13.76 13.76 0 0 0-10.35 1.41 12.1 12.1 0 0 0-5.56 8.25 12.65 12.65 0 0 0 1.81 10.28 14.3 14.3 0 0 0 9.24 5.68zm-6-14.74a5.75 5.75 0 0 1 3.24-4.25 10.38 10.38 0 0 1 6.66-.39 9.57 9.57 0 0 1 5.7 3.06 6 6 0 0 1 1.17 5.28 5.93 5.93 0 0 1-3.25 4.28 9.7 9.7 0 0 1-6.51.52 9.83 9.83 0 0 1-5.77-3.11 6 6 0 0 1-1.27-5.39zM16.84 126a7.26 7.26 0 0 0 3 2.09 6.91 6.91 0 0 0 4.77.22 11.53 11.53 0 0 0 4.65-3.17c.61-.64 1.19-1.23 1.75-1.77a12.62 12.62 0 0 1 1.6-1.33 4.47 4.47 0 0 1 1.5-.72 2.29 2.29 0 0 1 1.46.09 2.15 2.15 0 0 1 .89.65 2.47 2.47 0 0 1 .49 1.1 4.51 4.51 0 0 1 0 1.52 8.28 8.28 0 0 1-.53 1.91 11.39 11.39 0 0 1-5.2 5.84l5.53 2.17a12.39 12.39 0 0 0 2.29-2.79A22.9 22.9 0 0 0 41 128a20 20 0 0 0 1-3.91 9.76 9.76 0 0 0 0-3.62 6.78 6.78 0 0 0-1.45-3 7.47 7.47 0 0 0-3.17-2.15 7.58 7.58 0 0 0-2.81-.59 6.83 6.83 0 0 0-2.52.51 10.49 10.49 0 0 0-2.38 1.41 23 23 0 0 0-2.37 2.16c-.58.6-1.13 1.14-1.64 1.61a11.52 11.52 0 0 1-1.44 1.13 3.91 3.91 0 0 1-1.3.56 2 2 0 0 1-1.24-.1 2 2 0 0 1-.91-.7 2.54 2.54 0 0 1-.46-1.14 4.76 4.76 0 0 1 0-1.51 7.89 7.89 0 0 1 .5-1.8 11.28 11.28 0 0 1 .67-1.42 11.54 11.54 0 0 1 .93-1.42 10.74 10.74 0 0 1 1.13-1.3 8.5 8.5 0 0 1 1.3-1.06l-5.17-2a14.83 14.83 0 0 0-1.8 2.47 24.43 24.43 0 0 0-1.58 3.34 17.36 17.36 0 0 0-1 3.9 10.37 10.37 0 0 0 .11 3.62 7.11 7.11 0 0 0 1.44 3.01zm31.35-15.64l-12.44-7.86q-2.52-1.59-6-3.48l.09-.14a34 34 0 0 0 3.58 1.27l18.58 4.2 2.62-4.14-12-14.94a28.21 28.21 0 0 0-2.54-2.59l.08-.13a73.42 73.42 0 0 0 4.7 3.23l13.47 8.51 3.16-5L39 75.07l-4.57 7.23 10.41 13a38.2 38.2 0 0 0 2.68 3l-.06.09a22.53 22.53 0 0 0-3.72-1.23l-16.25-3.87-4.69 7.42 22.51 14.22zm1.26-50.4L49 51.63l-3.55 3.82 1.12 7.62 2.88-3.11zM65 85.97l10.86-11.71-3.56-3.31-6.78 7.31-4.47-4.14 5.92-6.38-3.56-3.31-5.93 6.38-4.34-4.02 6.37-6.86-3.58-3.32-10.44 11.25L65 85.97zm17.88-17.69l-6.38-8 1.26-1a2.21 2.21 0 0 1 .95-.46 3.18 3.18 0 0 1 1.12 0 7.14 7.14 0 0 1 1.33.27c.48.15 1 .32 1.57.53l7.52 2.75 5.37-4.31-8.85-3c-.46-.15-1-.3-1.46-.43a13.88 13.88 0 0 0-1.53-.32 8 8 0 0 0-1.45-.08 3.73 3.73 0 0 0-1.27.25v-.06a9.89 9.89 0 0 0 1.2-2.42 7.87 7.87 0 0 0 .44-2.45 7.21 7.21 0 0 0-.39-2.42A7.57 7.57 0 0 0 81 44.9q-4.5-5.64-12 .42l-7.41 6L78.2 72zm-7.19-13.11l-2 1.63L69 51l2.12-1.69c2.17-1.75 4-1.71 5.44.1a3.73 3.73 0 0 1 .83 2.93 4.29 4.29 0 0 1-1.7 2.83zm26.01-.45l-7-12.86a44.41 44.41 0 0 0-2.19-3.71h.07a24.86 24.86 0 0 0 2.23 1.31l17.62 9.46 5.34-2.92-12.7-23.4-5 2.7 7 12.94a28 28 0 0 0 1.93 3.14h-.07c-.7-.44-1.43-.86-2.21-1.27l-17-9.21L84 34l12.7 23.4zm21.36-14.22a12.4 12.4 0 0 0 10 .76 12.5 12.5 0 0 0 7.93-6.5 14.13 14.13 0 0 0 .47-10.76 13.76 13.76 0 0 0-6.3-8.34 12.08 12.08 0 0 0-9.91-.8 12.64 12.64 0 0 0-8.08 6.61 14.31 14.31 0 0 0-.44 10.84 13.37 13.37 0 0 0 6.33 8.19zm-.51-16.9a6 6 0 0 1 4.08-3.76 5.75 5.75 0 0 1 5.29.75 10.34 10.34 0 0 1 3.61 5.62 9.6 9.6 0 0 1 .12 6.47 6.4 6.4 0 0 1-9.35 2.87 9.66 9.66 0 0 1-3.64-5.42 9.9 9.9 0 0 1-.11-6.53zm-4.47-9.38a2.89 2.89 0 0 0 2.19.08A3 3 0 0 0 122 13a2.34 2.34 0 0 0 .21-2 2.37 2.37 0 0 0-1.3-1.51 2.93 2.93 0 0 0-2.17-.07 3.06 3.06 0 0 0-1.74 1.32 2.32 2.32 0 0 0-.23 2 2.35 2.35 0 0 0 1.31 1.48zm8.14-2.54a2.91 2.91 0 0 0 2.16.08 3 3 0 0 0 1.75-1.29 2.35 2.35 0 0 0 .22-2A2.3 2.3 0 0 0 129 7a2.93 2.93 0 0 0-2.17-.07 3 3 0 0 0-1.74 1.28 2.4 2.4 0 0 0-.21 2 2.34 2.34 0 0 0 1.34 1.47zm28.4 24.09L153 22.84h.09a10.87 10.87 0 0 0 .89 1.37l9.17 10.48 6.93-.89v.46l10.45-.17-.07-4.64h-2.23l-.28-17.34h2.23l-.08-4.64-10.45.17.08 4.64h2.22l.29 17.33h-2.23l.05 3.47-11.21-11.89 7.59-13.77-7.09.9-5.88 12c-.26.68-.44 1.21-.55 1.57h-.09l-1.6-12.48-5.95.76 3.39 26.4zm61.58-1.48l-9.76-2.04 1.25-5.96 8.52 1.78.99-4.76-8.52-1.78 1.21-5.8 9.16 1.91 1-4.77-15.03-3.14-5.44 26.06 15.63 3.26.99-4.76zm4.54-29.93l-5.1-1.06-5.95 4.88 4.14.87 6.91-4.69zm-2.99 34.35a13.08 13.08 0 0 0 2.85 2.21 23.25 23.25 0 0 0 3.8 1.75 19.79 19.79 0 0 0 4 1 9.87 9.87 0 0 0 3.62-.14A6.83 6.83 0 0 0 235 42a7.57 7.57 0 0 0 2-3.25 7.47 7.47 0 0 0 .51-2.82 6.63 6.63 0 0 0-.59-2.51 9.69 9.69 0 0 0-1.48-2.33 23.63 23.63 0 0 0-2.22-2.31 32.85 32.85 0 0 1-1.66-1.59 10.44 10.44 0 0 1-1.17-1.4 4 4 0 0 1-.6-1.29 2 2 0 0 1 .07-1.24 2 2 0 0 1 .67-.94 2.79 2.79 0 0 1 1.12-.49 4.73 4.73 0 0 1 1.52 0 8.48 8.48 0 0 1 1.81.44 12.54 12.54 0 0 1 1.44.64 13 13 0 0 1 1.45.88 11.59 11.59 0 0 1 1.33 1.1 9.11 9.11 0 0 1 1.09 1.26l1.88-5.23a15 15 0 0 0-2.53-1.72 24 24 0 0 0-3.39-1.48 17.24 17.24 0 0 0-3.92-.92 10.28 10.28 0 0 0-3.62.21 7.07 7.07 0 0 0-3 1.55 7.17 7.17 0 0 0-2 3.08 6.91 6.91 0 0 0-.09 4.78 11.66 11.66 0 0 0 3.38 4.52 65.4 65.4 0 0 1 1.82 1.69 15.18 15.18 0 0 1 1.38 1.56 4.74 4.74 0 0 1 .76 1.48 2.28 2.28 0 0 1 0 1.46 2.06 2.06 0 0 1-.62.91 2.48 2.48 0 0 1-1.08.52 4.69 4.69 0 0 1-1.52.06 8.1 8.1 0 0 1-1.93-.48 11 11 0 0 1-3.37-1.92 11.43 11.43 0 0 1-2.62-3.1zm43.05 16.48l-1.89-1.18 9.21-14.69 1.89 1.18 2.47-3.93-8.86-5.55-2.46 3.93 1.89 1.18-9.22 14.69-1.89-1.18-2.46 3.93 8.85 5.55 2.47-3.93zm4.35 8.81l9.38-11.22q1.86-2.22 2.65-3.4l.06.05a22.93 22.93 0 0 0-.39 2.55l-2.32 19.87 4.64 3.88 17.08-20.41-4.34-3.64L282.46 63a29.64 29.64 0 0 0-2.23 2.9h-.06c.15-.82.27-1.66.37-2.53l2.3-19.21-5-4.14-17.04 20.34zm21.08 19.92l7.82-6.76 5.65 6.53 3.67-3.18-5.64-6.53 4.94-4.28 6.14 7.11 3.7-3.2-10.07-11.63-20.13 17.41 3.92 4.53zm11.98 9.44a12.4 12.4 0 0 0 1.75 9.88 12.54 12.54 0 0 0 8.28 6.06 14.09 14.09 0 0 0 10.52-2.24 13.77 13.77 0 0 0 6.51-8.18 12.1 12.1 0 0 0-1.69-9.79 12.66 12.66 0 0 0-8.42-6.18 14.37 14.37 0 0 0-10.61 2.27 13.4 13.4 0 0 0-6.34 8.18zm9.94-3a9.87 9.87 0 0 1 6.3-1.73 6.06 6.06 0 0 1 4.66 3 5.77 5.77 0 0 1 .59 5.37 10.43 10.43 0 0 1-4.55 4.9 9.57 9.57 0 0 1-6.23 1.72 6 6 0 0 1-4.5-3 5.93 5.93 0 0 1-.61-5.34 9.7 9.7 0 0 1 4.34-4.9zm2.48 32.27l9.46-3.78.6 1.5a2.21 2.21 0 0 1 .16 1 3.37 3.37 0 0 1-.28 1.1 8.43 8.43 0 0 1-.65 1.19c-.27.41-.6.86-1 1.34l-4.83 6.39 2.56 6.39 5.44-7.59c.28-.39.56-.82.84-1.27a14 14 0 0 0 .75-1.36 9 9 0 0 0 .5-1.36 3.93 3.93 0 0 0 .14-1.3h.06a9.52 9.52 0 0 0 1.92 1.89 7.75 7.75 0 0 0 2.21 1.14 7.05 7.05 0 0 0 2.42.33 7.4 7.4 0 0 0 2.55-.55q6.72-2.69 3.13-11.69l-3.53-8.82-24.72 9.88zm20.54-8.21l1 2.52c1 2.58.47 4.31-1.69 5.17a3.73 3.73 0 0 1-3.05-.06 4.31 4.31 0 0 1-2.18-2.47l-1-2.41zm-13.01 29.71l14.49-2.62q2.93-.52 6.75-1.46v.16a35.74 35.74 0 0 0-3.5 1.48l-16.5 9.44.87 4.82 18.92 2.92a28.55 28.55 0 0 0 3.62.19v.15c-2.07.22-3.95.49-5.64.79l-15.68 2.83 1 5.83 26.2-4.73-1.52-8.42-16.36-2.51a37.12 37.12 0 0 0-4-.35v-.11a23.26 23.26 0 0 0 3.58-1.61l14.61-8.21-1.56-8.64-26.2 4.73zm4.35 26.29l-.17 6.49 5.88 2-.22 9.49-6 1.74-.17 6.54 26.86-8.78.18-7.11zM344 184.14a11.61 11.61 0 0 0-2.4.38l-9 2.63.18-6.81 8.94 3.12a9.91 9.91 0 0 0 2.28.54zm-2.34 23.57l-21.37-3.99-1.1 5.91 21.37 3.99-1.4 7.46 4.8.9 3.89-20.81-4.8-.89-1.39 7.43zm-3.86 18.18l-16.59-5.06.65-2.13-4.44-1.35-3.05 9.99 4.44 1.36.65-2.13 16.59 5.06-.65 2.13 4.43 1.35 3.05-9.99-4.44-1.36-.64 2.13zm-26.61 9.69l11.92 5.26v.09a12.43 12.43 0 0 0-1.63 0l-13.71 2.42-2.8 6.32-3 4.62 3.91 4.83-5.22 7.9-6-1.69-3.6 5.46 27.43 6.76 3.92-5.93L306.26 250l15.22-3.25 7.86 13.62 2.89-6.53-7.23-11.23c-.44-.57-.8-1-1.05-1.28v-.08l11.52 5.09 2.42-5.49-24.35-10.76zm3.67 34.58a11 11 0 0 0 1.68 1.67l-.08.12a11.47 11.47 0 0 0-2.24-.95l-9-2.54 3.75-5.69zm-9.1 16.47l-13.16-11.3 1.45-1.69-3.52-3.02-6.81 7.93 3.52 3.02 1.45-1.69 13.16 11.3-1.45 1.69 3.52 3.02 6.81-7.93-3.52-3.02-1.45 1.69zm-43.06 10.64l7.48 10.67-.08.06a11 11 0 0 0-1.42-.8l-13-5-5.85 4.09-5.16 2.44.83 6.15-8.56 4-4.24-4.55-5.91 2.79 19.92 20 6.43-3-2.5-27.23 15.08 5.22-.32 15.73 5.85-4.1-.34-13.31c-.09-.72-.17-1.27-.25-1.64l.08-.05 7.26 10.34 4.91-3.44-15.26-21.81zM248 331.33a11.68 11.68 0 0 0-1.42-2l-6.4-6.87 6.16-2.91 1.23 9.4a9.73 9.73 0 0 0 .57 2.29zm-29.26-12.09l2.72 9.83-1.56.43a2.35 2.35 0 0 1-1.05.05 3.64 3.64 0 0 1-1.06-.4 7.81 7.81 0 0 1-1.11-.78q-.57-.48-1.23-1.11l-5.81-5.5-6.64 1.84 6.95 6.24c.35.33.74.65 1.16 1a11.77 11.77 0 0 0 1.28.89 7.8 7.8 0 0 0 1.29.65 4 4 0 0 0 1.28.28v.07a9.66 9.66 0 0 0-2.08 1.69 7.54 7.54 0 0 0-1.38 2.08 7.38 7.38 0 0 0-.6 2.37 7.55 7.55 0 0 0 .28 2.59q1.92 7 11.26 4.4l9.17-2.53-7.1-25.66zm3.26 22.05q-4 1.13-5-2.25a3.73 3.73 0 0 1 .4-3 4.26 4.26 0 0 1 2.69-1.9l2.51-.7 2 7.14z"/><circle cx="178.28" cy="339.25" r="7.16"/></svg>