<svg xmlns="http://www.w3.org/2000/svg" viewBox="0 32 292 335"><defs><style>.a,.b{fill:#fff;}.a{fill-rule:evenodd;}</style></defs><title>schönherz-logo</title><polygon class="a" points="89.65 208.76 107.61 199.12 106.59 68.05 58.36 70.31 56.32 218.6 84.61 218.9 89.65 208.76"/><polygon class="a" points="73.94 240.43 80.48 227.22 49.88 226.94 52.17 79.23 51.42 79.26 37.06 79.79 33.81 230.98 10.28 256.24 8.35 307.44 69.97 307.34 73.94 240.43"/><polygon class="a" points="128.63 187.83 127.03 76.88 113.81 76.95 112.87 76.98 113.91 195.73 128.63 187.83"/><path class="a" d="M82.85,242.65l-4,64.12,116.31.38.74-35.36,5.26.3V253.92l6.76-7.51,6.26,7.26-.23,19.16,5,.29.74,34.1,64.88.22-1.76-64.79-44.91-26.3L137,194.56l-39.41,20Zm190.68,11.77,4.75,6.77v17.28l-8.76.5-.25-18Zm-18.29-2.5,5,7,.5,18.53-10.52.26L250,259.18Zm-21.54-1.75,4.76,7.76-.5,19h-9.77l-.5-20Zm-59.1.75,6.26-7.27,5.76,7,.25,22.79-13-.25Zm-31.31-4,7.51-8,6.27,8.27-.51,24-13.77-.5ZM112,243.4l7.52-9,7.51,9.76-.5,25.3-15.28-.5Z"/><rect class="b" x="7.11" y="315.96" width="277.43" height="8.99"/></svg>
