<svg xmlns="http://www.w3.org/2000/svg" viewBox="0 34 292 316" fill="#fff"><path d="M89.65 208.76l17.96-9.64-1.02-131.07-48.23 2.26-2.04 148.29 28.29.3 5.04-10.14z"/><path d="M73.94 240.43l6.54-13.21-30.6-.28 2.29-147.71-.75.03-14.36.53-3.25 151.19-23.53 25.26-1.93 51.2 61.62-.1 3.97-66.91zm54.69-52.6l-1.6-110.95-13.22.07-.94.03 1.04 118.75 14.72-7.9zm-45.78 54.82l-4 64.12 116.31.38.74-35.36 5.26.3v-18.17l6.76-7.51 6.26 7.26-.23 19.16 5 .29.74 34.1 64.88.22-1.76-64.79-44.91-26.3L137 194.56l-39.41 20zm190.68 11.77l4.75 6.77v17.28l-8.76.5-.25-18zm-18.29-2.5l5 7 .5 18.53-10.52.26-.22-18.53zm-21.54-1.75l4.76 7.76-.5 19h-9.77l-.5-20zm-59.1.75l6.26-7.27 5.76 7 .25 22.79-13-.25zm-31.31-4l7.51-8 6.27 8.27-.51 24-13.77-.5zM112 243.4l7.52-9 7.51 9.76-.5 25.3-15.28-.5zM7.11 315.96h277.43v8.99H7.11zm329.15-1.72l4.81-11.67q7.71 5.42"/></svg>
